<svg width="85" height="85" viewBox="0 0 85 85" fill="none" xmlns="http://www.w3.org/2000/svg">
<mask id="mask0_6_522" style="mask-type:alpha" maskUnits="userSpaceOnUse" x="0" y="0" width="85" height="85">
<rect x="0.1651" y="0.956543" width="84" height="84" fill="#D9D9D9"/>
</mask>
<g mask="url(#mask0_6_522)">
<path d="M15.048 70.9565C12.6196 70.9565 10.5528 70.1058 8.84773 68.4042C7.14264 66.7032 6.2901 64.6373 6.2901 62.2065C6.2901 60.1112 6.95743 58.2603 8.2921 56.6538C9.62735 55.0473 11.2933 54.051 13.2901 53.6648V32.2483C11.2933 31.8621 9.62735 30.8658 8.2921 29.2593C6.95743 27.6528 6.2901 25.8019 6.2901 23.7065C6.2901 21.2758 7.14002 19.2099 8.83985 17.5089C10.5397 15.8073 12.6038 14.9565 15.0322 14.9565C17.4606 14.9565 19.5274 15.8073 21.2325 17.5089C22.9376 19.2099 23.7901 21.2758 23.7901 23.7065C23.7901 25.8019 23.1228 27.6528 21.7881 29.2593C20.4528 30.8658 18.7868 31.8621 16.7901 32.2483V41.2065H40.4151V32.2483C38.4183 31.8621 36.7523 30.8658 35.4171 29.2593C34.0824 27.6528 33.4151 25.8019 33.4151 23.7065C33.4151 21.2758 34.265 19.2099 35.9648 17.5089C37.6647 15.8073 39.7288 14.9565 42.1572 14.9565C44.5856 14.9565 46.6524 15.8073 48.3575 17.5089C50.0626 19.2099 50.9151 21.2758 50.9151 23.7065C50.9151 25.8019 50.2478 27.6528 48.9131 29.2593C47.5778 30.8658 45.9118 31.8621 43.9151 32.2483V41.2065H62.3575C63.7977 41.2065 65.0329 40.6918 66.0631 39.6622C67.0927 38.632 67.6075 37.3968 67.6075 35.9565V32.2483C65.6107 31.8621 63.9447 30.8658 62.6095 29.2593C61.2748 27.6528 60.6075 25.8019 60.6075 23.7065C60.6075 21.2758 61.4574 19.2099 63.1572 17.5089C64.8571 15.8073 66.9212 14.9565 69.3496 14.9565C71.778 14.9565 73.8448 15.8073 75.5498 17.5089C77.2549 19.2099 78.1075 21.2758 78.1075 23.7065C78.1075 25.8019 77.4398 27.6528 76.1046 29.2593C74.7699 30.8658 73.1042 31.8621 71.1075 32.2483V35.9565C71.1075 38.3873 70.2567 40.4532 68.5551 42.1542C66.8541 43.8557 64.7882 44.7065 62.3575 44.7065H43.9151V53.6648C45.9118 54.051 47.5778 55.0473 48.9131 56.6538C50.2478 58.2603 50.9151 60.1112 50.9151 62.2065C50.9151 64.6373 50.0652 66.7032 48.3653 68.4042C46.6655 70.1058 44.6014 70.9565 42.173 70.9565C39.7446 70.9565 37.6778 70.1058 35.9727 68.4042C34.2676 66.7032 33.4151 64.6373 33.4151 62.2065C33.4151 60.1112 34.0824 58.2603 35.4171 56.6538C36.7523 55.0473 38.4183 54.051 40.4151 53.6648V44.7065H16.7901V53.6648C18.7868 54.051 20.4528 55.0473 21.7881 56.6538C23.1228 58.2603 23.7901 60.1112 23.7901 62.2065C23.7901 64.6373 22.9402 66.7032 21.2403 68.4042C19.5405 70.1058 17.4764 70.9565 15.048 70.9565Z" fill="#1C1B1F"/>
</g>
</svg>
