<svg width="870" height="638" viewBox="0 0 870 638" fill="none" xmlns="http://www.w3.org/2000/svg">
<path d="M0.5 40C0.5 18.1847 18.1848 0.5 40 0.5H830C851.815 0.5 869.5 18.1848 869.5 40V598C869.5 619.815 851.815 637.5 830 637.5H615.774C602.138 637.5 589.585 631.7 577.337 624.276C572.651 621.436 568.023 618.367 563.399 615.301C561.98 614.36 560.562 613.419 559.142 612.485C553.103 608.513 547.05 604.672 540.9 601.508C533.435 597.667 524.97 595.5 516 595.5H152C119.691 595.5 93.5 569.309 93.5 537V527C93.5 504.632 75.3675 486.5 53 486.5C24.005 486.5 0.5 462.995 0.5 434V40Z" fill="black" fill-opacity="0.07" stroke="black"/>
</svg>
