<svg width="84" height="84" viewBox="0 0 84 84" fill="none" xmlns="http://www.w3.org/2000/svg">
<mask id="mask0_6_528" style="mask-type:alpha" maskUnits="userSpaceOnUse" x="0" y="0" width="84" height="84">
<rect width="84" height="84" fill="#D9D9D9"/>
</mask>
<g mask="url(#mask0_6_528)">
<path d="M39.6612 76.6261L14.0492 61.7391C13.0476 61.1643 12.2892 60.4096 11.7739 59.4748C11.258 58.5393 11 57.5153 11 56.4028V43.795H28.4556V55.0839H39.6612V76.6261ZM11 39.8312V27.2233C11 26.1108 11.258 25.0868 11.7739 24.1514C12.2892 23.2166 13.0476 22.4618 14.0492 21.887L39.6612 7V28.5423H28.4556V39.8312H11ZM32.4194 51.1131V32.5893H50.7906V51.1131H32.4194ZM43.625 76.6261V55.0839H54.7544V43.795H72.2863V56.4028C72.2863 57.5206 72.0194 58.5495 71.4856 59.4896C70.9525 60.4304 70.203 61.1802 69.2371 61.7391L43.625 76.6261ZM54.7544 39.8312V28.5423H43.625V7L69.2371 21.887C70.203 22.4459 70.9525 23.1958 71.4856 24.1365C72.0194 25.0766 72.2863 26.1055 72.2863 27.2233V39.8312H54.7544Z" fill="#1C1B1F"/>
</g>
</svg>
