<svg width="47" height="47" viewBox="0 0 47 47" fill="none" xmlns="http://www.w3.org/2000/svg">
<mask id="mask0_6_557" style="mask-type:alpha" maskUnits="userSpaceOnUse" x="0" y="0" width="47" height="47">
<rect x="0.910034" y="0.591797" width="46" height="46" fill="#D9D9D9"/>
</mask>
<g mask="url(#mask0_6_557)">
<path d="M24.0428 36.1977L28.6576 31.5939L24.0428 26.99L22.841 28.1918L25.4913 30.8421C24.0071 30.8494 22.6882 30.6748 21.5343 30.3183C20.3808 29.9622 19.4563 29.4364 18.7609 28.7409C18.0482 28.0282 17.5119 27.2199 17.1519 26.3159C16.7919 25.4115 16.6118 24.5072 16.6118 23.6028C16.6118 23.0598 16.6714 22.5167 16.7906 21.9736C16.9097 21.4306 17.0848 20.9158 17.3157 20.4293L16.0186 19.2793C15.6474 19.9549 15.371 20.655 15.1892 21.3795C15.0074 22.104 14.9166 22.8414 14.9166 23.5918C14.9166 24.7306 15.1376 25.8544 15.5797 26.9632C16.0222 28.0723 16.6759 29.0655 17.5409 29.9427C18.4057 30.8199 19.5421 31.4717 20.9502 31.8982C22.3583 32.3243 23.8045 32.541 25.2886 32.5484L22.841 34.996L24.0428 36.1977ZM31.8383 27.9043C32.2095 27.2287 32.486 26.5286 32.6678 25.8041C32.8495 25.0796 32.9404 24.3422 32.9404 23.5918C32.9404 22.4568 32.7211 21.3293 32.2825 20.2094C31.8439 19.0894 31.186 18.0962 30.3088 17.2299C29.4562 16.3527 28.3216 15.7028 26.9048 15.2802C25.4884 14.8575 24.0429 14.6462 22.5684 14.6462L25.0159 12.1876L23.8142 10.9859L19.1993 15.5897L23.8142 20.1935L25.0159 18.9918L22.3547 16.3305C23.8315 16.3305 25.1522 16.5105 26.3169 16.8705C27.4816 17.2305 28.4116 17.7592 29.1071 18.4566C29.8022 19.1536 30.3323 19.9552 30.6974 20.8615C31.0626 21.7681 31.2451 22.6745 31.2451 23.5808C31.2451 24.1238 31.1855 24.6669 31.0664 25.2099C30.9472 25.753 30.772 26.2678 30.5407 26.7543L31.8383 27.9043ZM23.9163 40.8418C21.531 40.8418 19.2883 40.3891 17.1883 39.4838C15.0886 38.5785 13.262 37.3499 11.7085 35.7981C10.1551 34.2462 8.92537 32.4212 8.01943 30.3231C7.11317 28.2253 6.66003 25.9836 6.66003 23.598C6.66003 21.2127 7.11269 18.9701 8.01799 16.87C8.9233 14.7703 10.1519 12.9438 11.7037 11.3903C13.2556 9.83684 15.0806 8.60714 17.1787 7.70119C19.2765 6.79493 21.5182 6.3418 23.9038 6.3418C26.2891 6.3418 28.5318 6.79445 30.6318 7.69976C32.7315 8.60506 34.5581 9.83364 36.1115 11.3855C37.665 12.9374 38.8947 14.7624 39.8006 16.8605C40.7069 18.9583 41.16 21.2 41.16 23.5856C41.16 25.9709 40.7074 28.2135 39.8021 30.3135C38.8968 32.4133 37.6682 34.2398 36.1163 35.7933C34.5645 37.3468 32.7395 38.5765 30.6414 39.4824C28.5436 40.3887 26.3019 40.8418 23.9163 40.8418Z" fill="#F1CB6A"/>
</g>
</svg>
