<svg width="81" height="81" viewBox="0 0 81 81" fill="none" xmlns="http://www.w3.org/2000/svg">
<mask id="mask0_7_821" style="mask-type:alpha" maskUnits="userSpaceOnUse" x="0" y="0" width="81" height="81">
<rect x="0.956726" y="0.748291" width="80" height="80" fill="#D9D9D9"/>
</mask>
<g mask="url(#mask0_7_821)">
<path d="M64.2901 69.0817C62.2945 69.0817 60.5317 68.4567 59.0017 67.2067C57.4717 65.9567 56.5228 64.3595 56.1551 62.415H37.6234C34.3839 62.415 31.6298 61.2803 29.3609 59.0109C27.0914 56.742 25.9567 53.9878 25.9567 50.7484C25.9567 47.5089 27.0914 44.7548 29.3609 42.4859C31.6298 40.2164 34.3839 39.0817 37.6234 39.0817H44.2901C46.5817 39.0817 48.5434 38.2645 50.1751 36.63C51.8073 34.9956 52.6234 33.0309 52.6234 30.7359C52.6234 28.4409 51.8073 26.4803 50.1751 24.8542C48.5434 23.2281 46.5817 22.415 44.2901 22.415H25.7584C25.3778 24.3595 24.4259 25.9567 22.9026 27.2067C21.3787 28.4567 19.6189 29.0817 17.6234 29.0817C15.3084 29.0817 13.3409 28.2723 11.7209 26.6534C10.1003 25.0345 9.29005 23.0687 9.29005 20.7559C9.29005 18.4431 10.1003 16.4748 11.7209 14.8509C13.3409 13.227 15.3084 12.415 17.6234 12.415C19.6189 12.415 21.3787 13.04 22.9026 14.29C24.4259 15.54 25.3778 17.1373 25.7584 19.0817H44.2901C47.5295 19.0817 50.2837 20.2164 52.5526 22.4859C54.822 24.7548 55.9567 27.5089 55.9567 30.7484C55.9567 33.9878 54.822 36.742 52.5526 39.0109C50.2837 41.2803 47.5295 42.415 44.2901 42.415H37.6234C35.3317 42.415 33.3701 43.2323 31.7384 44.8667C30.1062 46.5012 29.2901 48.4659 29.2901 50.7609C29.2901 53.0559 30.1062 55.0164 31.7384 56.6425C33.3701 58.2687 35.3317 59.0817 37.6234 59.0817H56.1551C56.5356 57.1373 57.4876 55.54 59.0109 54.29C60.5348 53.04 62.2945 52.415 64.2901 52.415C66.6051 52.415 68.5726 53.2245 70.1926 54.8434C71.8131 56.4623 72.6234 58.4281 72.6234 60.7409C72.6234 63.0537 71.8131 65.022 70.1926 66.6459C68.5726 68.2698 66.6051 69.0817 64.2901 69.0817ZM17.6234 25.7484C18.9951 25.7484 20.1714 25.2581 21.1526 24.2775C22.1331 23.2964 22.6234 22.12 22.6234 20.7484C22.6234 19.3767 22.1331 18.2003 21.1526 17.2192C20.1714 16.2387 18.9951 15.7484 17.6234 15.7484C16.2517 15.7484 15.0753 16.2387 14.0942 17.2192C13.1137 18.2003 12.6234 19.3767 12.6234 20.7484C12.6234 22.12 13.1137 23.2964 14.0942 24.2775C15.0753 25.2581 16.2517 25.7484 17.6234 25.7484Z" fill="#1C1B1F"/>
</g>
</svg>
