<svg width="80" height="80" viewBox="0 0 80 80" fill="none" xmlns="http://www.w3.org/2000/svg">
<mask id="mask0_7_827" style="mask-type:alpha" maskUnits="userSpaceOnUse" x="0" y="0" width="80" height="80">
<rect width="80" height="80" fill="#D9D9D9"/>
</mask>
<g mask="url(#mask0_7_827)">
<path d="M31.3844 69.9412C29.0479 69.9412 27.0017 69.2327 25.2457 67.8157C23.4893 66.3992 22.2789 64.5833 21.6145 62.368C20.9973 63.3973 20.1448 64.1849 19.0568 64.7308C17.9683 65.2768 16.8223 65.5498 15.619 65.5498C13.4974 65.5498 11.6973 64.8061 10.2187 63.3189C8.73956 61.8317 8 60.0313 8 57.9177C8 56.0428 8.65244 54.3355 9.95733 52.7959C11.2622 51.2557 12.9092 50.4757 14.8983 50.4559C13.8743 49.5166 13.0644 48.3866 12.4686 47.0657C11.8728 45.7449 11.5749 44.3701 11.5749 42.9414C11.5749 41.2583 11.9881 39.6731 12.8145 38.1859C13.6409 36.6986 14.7985 35.4737 16.2872 34.511C16.4239 34.9573 16.6105 35.4376 16.8472 35.952C17.0834 36.4669 17.3247 36.9299 17.571 37.341C16.6253 38.0569 15.9101 38.9071 15.4255 39.8916C14.941 40.8756 14.6987 41.9177 14.6987 43.0177C14.6987 46.1799 15.8669 48.2189 18.2034 49.1348C20.5399 50.0506 22.945 50.7512 25.4187 51.2366L26.1044 52.4463C25.5457 54.0745 25.0923 55.4511 24.7444 56.576C24.3964 57.7015 24.2225 58.7417 24.2225 59.6968C24.2225 61.6144 24.915 63.2828 26.3002 64.7018C27.6853 66.1204 29.3605 66.8297 31.3257 66.8297C33.4905 66.8297 35.2665 66.0135 36.6537 64.3813C38.0404 62.7496 39.1792 60.8123 40.0701 58.5695C40.961 56.3267 41.6518 54.0195 42.1425 51.648C42.6326 49.276 43.0438 47.3367 43.376 45.8301L46.3886 46.6696C45.9705 48.685 45.4702 51.0313 44.8876 53.7087C44.3055 56.3855 43.4763 58.9226 42.4 61.3201C41.3237 63.7171 39.9152 65.7533 38.1745 67.4288C36.4338 69.1037 34.1704 69.9412 31.3844 69.9412ZM34.1509 49.9102C32.0881 48.0587 30.2019 46.3277 28.4922 44.7174C26.783 43.107 25.311 41.5277 24.0762 39.9794C22.8414 38.4316 21.8852 36.8838 21.2076 35.3361C20.5295 33.7878 20.1905 32.1761 20.1905 30.5012C20.1905 27.6244 21.1741 25.2007 23.1413 23.2301C25.1086 21.2595 27.5281 20.2742 30.4 20.2742C30.9547 20.2742 31.4547 20.3066 31.9002 20.3712C32.3457 20.4358 32.7677 20.5269 33.1665 20.6444C32.9242 20.1748 32.7327 19.6952 32.592 19.2058C32.4513 18.7163 32.381 18.1917 32.381 17.632C32.381 15.519 33.1233 13.7186 34.608 12.2308C36.0927 10.7436 37.89 10 40 10C42.11 10 43.9073 10.7436 45.392 12.2308C46.8767 13.7186 47.619 15.519 47.619 17.632C47.619 18.1917 47.5487 18.7132 47.408 19.1966C47.2673 19.68 47.0758 20.1567 46.8335 20.6268C47.2323 20.5093 47.6544 20.421 48.0998 20.362C48.5453 20.3035 49.0453 20.2742 49.6 20.2742C51.905 20.2742 53.9192 20.9309 55.6427 22.2441C57.3656 23.5573 58.5476 25.2333 59.1886 27.2721C58.704 27.1978 58.1638 27.1606 57.568 27.1606C56.9722 27.1606 56.4262 27.1919 55.9299 27.2545C55.3788 26.0843 54.5455 25.1371 53.4301 24.4131C52.3147 23.6891 51.038 23.3271 49.6 23.3271C47.7049 23.3271 46.1938 23.8193 45.0667 24.8039C43.9396 25.7879 42.4734 27.3308 40.6682 29.4327H39.2556C37.3996 27.2682 35.9081 25.7095 34.781 24.7565C33.6538 23.8035 32.1935 23.3271 30.4 23.3271C28.3449 23.3271 26.6375 24.0081 25.2777 25.3702C23.918 26.7322 23.2381 28.4426 23.2381 30.5012C23.2381 31.6714 23.539 32.8895 24.141 34.1554C24.7424 35.4218 25.6107 36.7546 26.7459 38.1538C27.8806 39.553 29.25 41.0413 30.8541 42.6186C32.4582 44.1958 34.2819 45.9003 36.3253 47.732L34.1509 49.9102ZM48.4221 70C47.6952 70 46.9811 69.9257 46.2796 69.7771C45.5787 69.6281 44.896 69.3795 44.2316 69.0315C44.5166 68.6713 44.8018 68.2426 45.0872 67.7455C45.3722 67.2484 45.6262 66.7884 45.8491 66.3656C46.2905 66.5656 46.7418 66.7027 47.203 66.777C47.6643 66.8513 48.1156 66.8884 48.557 66.8884C50.5338 66.8884 52.2245 66.1789 53.629 64.7598C55.0339 63.3413 55.7364 61.6478 55.7364 59.6792C55.7364 58.7125 55.5624 57.6791 55.2145 56.5791C54.867 55.4795 54.414 54.1157 53.8552 52.4875L54.5996 51.2779C57.1236 50.7925 59.5411 50.0822 61.8522 49.147C64.1633 48.2113 65.3189 46.1624 65.3189 43.0002C65.3189 40.5345 64.4523 38.7066 62.7192 37.5165C60.9867 36.327 59.0359 35.7322 56.867 35.7322C54.8119 35.7322 52.4208 36.0804 49.6937 36.777C46.9666 37.4735 43.8154 38.4186 40.24 39.6123L39.4019 36.5953C42.895 35.4795 46.0345 34.5283 48.8206 33.7417C51.6066 32.9551 54.1775 32.5618 56.5333 32.5618C59.6084 32.5618 62.3492 33.468 64.7558 35.2804C67.1629 37.0922 68.3665 39.6655 68.3665 43.0002C68.3665 44.4289 68.0782 45.7741 67.5017 47.036C66.9257 48.2983 66.1257 49.4383 65.1017 50.4559C67.0908 50.5149 68.7378 51.2949 70.0427 52.7959C71.3476 54.2968 72 56.0041 72 57.9177C72 59.9921 71.2604 61.7828 69.7813 63.2899C68.3027 64.7965 66.5026 65.5498 64.381 65.5498C63.1777 65.5498 62.0317 65.2768 60.9432 64.7308C59.8552 64.1849 59.0027 63.3973 58.3855 62.368C57.7211 64.5833 56.4912 66.4091 54.6956 67.8455C52.9006 69.2818 50.8094 70 48.4221 70Z" fill="#1C1B1F"/>
</g>
</svg>
