<svg width="648" height="22" viewBox="0 0 648 22" fill="none" xmlns="http://www.w3.org/2000/svg">
<path d="M0.333333 11C0.333334 16.891 5.10896 21.6667 11 21.6667C16.891 21.6667 21.6667 16.891 21.6667 11C21.6667 5.10896 16.891 0.333333 11 0.333333C5.10896 0.333334 0.333333 5.10896 0.333333 11ZM626.333 10.9999C626.333 16.891 631.109 21.6666 637 21.6666C642.891 21.6666 647.667 16.891 647.667 10.9999C647.667 5.10891 642.891 0.333278 637 0.333278C631.109 0.333279 626.333 5.10891 626.333 10.9999ZM11 13L637 12.9999L637 8.99995L11 9L11 13Z" fill="#F1CB6A"/>
</svg>
