<svg width="28" height="28" viewBox="0 0 28 28" fill="none" xmlns="http://www.w3.org/2000/svg">
<mask id="mask0_6_625" style="mask-type:alpha" maskUnits="userSpaceOnUse" x="0" y="0" width="28" height="28">
<rect width="28" height="28" fill="#D9D9D9"/>
</mask>
<g mask="url(#mask0_6_625)">
<path d="M5.83333 25.6663C5.19167 25.6663 4.64236 25.4379 4.18542 24.9809C3.72847 24.524 3.5 23.9747 3.5 23.333V6.99967C3.5 6.35801 3.72847 5.8087 4.18542 5.35176C4.64236 4.89481 5.19167 4.66634 5.83333 4.66634H7V2.33301H9.33333V4.66634H18.6667V2.33301H21V4.66634H22.1667C22.8083 4.66634 23.3576 4.89481 23.8146 5.35176C24.2715 5.8087 24.5 6.35801 24.5 6.99967V12.4538C24.5 12.7844 24.3882 13.0615 24.1646 13.2851C23.941 13.5087 23.6639 13.6205 23.3333 13.6205C23.0028 13.6205 22.7257 13.5087 22.5021 13.2851C22.2785 13.0615 22.1667 12.7844 22.1667 12.4538V11.6663H5.83333V23.333H12.6C12.9306 23.333 13.2076 23.4448 13.4312 23.6684C13.6549 23.892 13.7667 24.1691 13.7667 24.4997C13.7667 24.8302 13.6549 25.1073 13.4312 25.3309C13.2076 25.5545 12.9306 25.6663 12.6 25.6663H5.83333ZM21 26.833C19.3861 26.833 18.0104 26.2643 16.8729 25.1268C15.7354 23.9893 15.1667 22.6136 15.1667 20.9997C15.1667 19.3858 15.7354 18.0101 16.8729 16.8726C18.0104 15.7351 19.3861 15.1663 21 15.1663C22.6139 15.1663 23.9896 15.7351 25.1271 16.8726C26.2646 18.0101 26.8333 19.3858 26.8333 20.9997C26.8333 22.6136 26.2646 23.9893 25.1271 25.1268C23.9896 26.2643 22.6139 26.833 21 26.833ZM22.9542 23.7705L23.7708 22.9538L21.5833 20.7663V17.4997H20.4167V21.233L22.9542 23.7705Z" fill="black" fill-opacity="0.71"/>
</g>
</svg>
