<svg width="28" height="28" viewBox="0 0 28 28" fill="none" xmlns="http://www.w3.org/2000/svg">
<mask id="mask0_6_613" style="mask-type:alpha" maskUnits="userSpaceOnUse" x="0" y="0" width="28" height="28">
<rect width="28" height="28" fill="#D9D9D9"/>
</mask>
<g mask="url(#mask0_6_613)">
<path d="M14 24.5001L12.3084 22.9835C10.3445 21.214 8.72087 19.6876 7.43754 18.4043C6.15421 17.121 5.13337 15.9689 4.37504 14.948C3.61671 13.9272 3.08685 12.989 2.78546 12.1335C2.48407 11.2779 2.33337 10.4029 2.33337 9.50846C2.33337 7.68069 2.94587 6.1543 4.17087 4.9293C5.39587 3.7043 6.92226 3.0918 8.75004 3.0918C9.76115 3.0918 10.7237 3.30569 11.6375 3.73346C12.5514 4.16124 13.3389 4.76402 14 5.5418C14.6612 4.76402 15.4487 4.16124 16.3625 3.73346C17.2764 3.30569 18.2389 3.0918 19.25 3.0918C21.0778 3.0918 22.6042 3.7043 23.8292 4.9293C25.0542 6.1543 25.6667 7.68069 25.6667 9.50846C25.6667 10.4029 25.516 11.2779 25.2146 12.1335C24.9132 12.989 24.3834 13.9272 23.625 14.948C22.8667 15.9689 21.8459 17.121 20.5625 18.4043C19.2792 19.6876 17.6556 21.214 15.6917 22.9835L14 24.5001Z" fill="black" fill-opacity="0.71"/>
</g>
</svg>
