<svg width="29" height="28" viewBox="0 0 29 28" fill="none" xmlns="http://www.w3.org/2000/svg">
<mask id="mask0_6_600" style="mask-type:alpha" maskUnits="userSpaceOnUse" x="0" y="0" width="29" height="28">
<rect x="0.333496" width="28" height="28" fill="#D9D9D9"/>
</mask>
<g mask="url(#mask0_6_600)">
<path d="M8.50014 20.9997C8.16959 20.9997 7.8925 20.8879 7.66889 20.6643C7.44528 20.4406 7.33348 20.1636 7.33348 19.833V17.4997H22.5001V6.99967H24.8335C25.164 6.99967 25.4411 7.11148 25.6647 7.33509C25.8883 7.5587 26.0001 7.83579 26.0001 8.16634V25.6663L21.3335 20.9997H8.50014ZM2.66681 19.833V3.49967C2.66681 3.16912 2.77861 2.89204 3.00223 2.66842C3.22584 2.44481 3.50292 2.33301 3.83348 2.33301H19.0001C19.3307 2.33301 19.6078 2.44481 19.8314 2.66842C20.055 2.89204 20.1668 3.16912 20.1668 3.49967V13.9997C20.1668 14.3302 20.055 14.6073 19.8314 14.8309C19.6078 15.0545 19.3307 15.1663 19.0001 15.1663H7.33348L2.66681 19.833Z" fill="black" fill-opacity="0.71"/>
</g>
</svg>
