<svg xmlns="http://www.w3.org/2000/svg" width="163" height="60" fill="none">
  <path fill="var(--card-color-icon,currentColor)" d="M54.084 38.3333v-17.88h6.84c1.232 0 2.32.216 3.264.648.96.432 1.712 1.072 2.256 1.92.544.848.816 1.896.816 3.144 0 1.216-.28 2.256-.84 3.12-.56.848-1.312 1.488-2.256 1.92l4.08 7.128h-4.176l-4.416-7.896 2.4 1.416h-4.248v6.48h-3.72Zm3.72-9.72h3.144c.528 0 .984-.104 1.368-.312.384-.208.68-.496.888-.864.224-.368.336-.792.336-1.272 0-.496-.112-.928-.336-1.296-.208-.368-.504-.656-.888-.864-.384-.208-.84-.312-1.368-.312h-3.144v4.92ZM79.0438 38.6213c-1.344 0-2.592-.232-3.744-.696-1.152-.464-2.16-1.112-3.024-1.944-.848-.848-1.512-1.832-1.992-2.952-.48-1.12-.72-2.336-.72-3.648 0-1.312.232-2.528.696-3.648.48-1.12 1.144-2.096 1.992-2.928.864-.832 1.872-1.48 3.024-1.944 1.152-.464 2.408-.696 3.768-.696 1.36 0 2.616.232 3.768.696 1.152.464 2.152 1.112 3 1.944.864.832 1.528 1.808 1.992 2.928.48 1.12.72 2.336.72 3.648 0 1.312-.24 2.528-.72 3.648s-1.152 2.104-2.016 2.952c-.848.832-1.848 1.48-3 1.944-1.152.464-2.4.696-3.744.696Zm0-3.36c.816 0 1.568-.144 2.256-.432.704-.288 1.32-.688 1.848-1.2.528-.528.936-1.152 1.224-1.872.288-.72.432-1.512.432-2.376 0-.864-.144-1.648-.432-2.352-.288-.72-.696-1.344-1.224-1.872s-1.144-.928-1.848-1.2c-.688-.288-1.44-.432-2.256-.432-.816 0-1.576.144-2.28.432-.688.272-1.296.672-1.824 1.2-.528.528-.936 1.152-1.224 1.872-.288.704-.432 1.488-.432 2.352 0 .864.144 1.656.432 2.376.288.72.696 1.344 1.224 1.872.528.512 1.136.912 1.824 1.2.704.288 1.464.432 2.28.432ZM91.1621 38.3333v-17.88h3.6l6.6959 8.88h-1.6799l6.5039-8.88h3.6v17.88h-3.72v-13.776l1.488.336-6.888 8.88h-.48l-6.6479-8.88 1.248-.336v13.776h-3.72ZM114.565 38.3333v-3.6h3.6v3.6h-3.6ZM121.53 38.3333l6.048-17.88h4.944l6.048 17.88h-4.056l-1.2-3.648h-6.552l-1.2 3.648h-4.032Zm6.264-6.888h4.488l-2.736-8.448h1.008l-2.76 8.448ZM140.428 38.3333v-17.88h3.72v17.88h-3.72Z"/>
  <path fill="#F1CB6A" d="m27.6667 48.1625-12.8334-7.3792c-.5805-.3361-1.0312-.7791-1.352-1.3291-.3209-.55-.4813-1.1611-.4813-1.8334v-14.575c0-.6722.1604-1.2833.4813-1.8333.3208-.55.7715-.9931 1.352-1.3292l12.8334-7.3791C28.2472 12.1681 28.8583 12 29.5 12c.6417 0 1.2528.1681 1.8333.5042l12.8334 7.3791c.5805.3361 1.0312.7792 1.3521 1.3292.3208.55.4812 1.1611.4812 1.8333v14.575c0 .6723-.1604 1.2834-.4812 1.8334-.3209.55-.7716.993-1.3521 1.3291l-12.8334 7.3792c-.5805.3361-1.1916.5042-1.8333.5042-.6417 0-1.2528-.1681-1.8333-.5042Zm0-16.775v12.5583L29.5 45l1.8333-1.0542V31.3875l11-6.3708v-1.925l-1.9708-1.1459L29.5 28.225l-10.8625-6.2792-1.9708 1.1459v1.925l11 6.3708Z"/>
</svg>