<svg width="20" height="20" viewBox="0 0 20 20" fill="none" xmlns="http://www.w3.org/2000/svg">
<mask id="mask0_7_857" style="mask-type:alpha" maskUnits="userSpaceOnUse" x="0" y="0" width="20" height="20">
<rect width="20" height="20" fill="#D9D9D9"/>
</mask>
<g mask="url(#mask0_7_857)">
<path d="M14.7887 10C14.7887 8.375 14.2233 6.99653 13.0926 5.86458C11.9618 4.73264 10.5847 4.16667 8.96144 4.16667V2.5C10.002 2.5 10.9767 2.69792 11.8855 3.09375C12.7943 3.48958 13.5851 4.02431 14.258 4.69792C14.9309 5.37153 15.4651 6.16319 15.8605 7.07292C16.2559 7.98264 16.4536 8.95833 16.4536 10H14.7887ZM11.4588 10C11.4588 9.30556 11.216 8.71528 10.7304 8.22917C10.2448 7.74306 9.65516 7.5 8.96144 7.5V5.83333C10.113 5.83333 11.0946 6.23958 11.9063 7.05208C12.7179 7.86458 13.1238 8.84722 13.1238 10H11.4588ZM15.5795 17.5C13.8452 17.5 12.1317 17.1215 10.4391 16.3646C8.74638 15.6076 7.20632 14.5347 5.81888 13.1458C4.43143 11.7569 3.35963 10.2153 2.60347 8.52083C1.84732 6.82639 1.46924 5.11111 1.46924 3.375C1.46924 3.125 1.55248 2.91667 1.71898 2.75C1.88547 2.58333 2.09359 2.5 2.34333 2.5H5.71482C5.90906 2.5 6.08249 2.56597 6.23511 2.69792C6.38773 2.82986 6.47791 2.98611 6.50566 3.16667L7.04677 6.08333C7.07451 6.30556 7.06758 6.49306 7.02595 6.64583C6.98433 6.79861 6.90802 6.93056 6.79702 7.04167L4.77829 9.08333C5.05578 9.59722 5.3853 10.0937 5.76685 10.5729C6.14839 11.0521 6.5681 11.5139 7.02595 11.9583C7.45606 12.3889 7.90698 12.7882 8.37871 13.1563C8.85044 13.5243 9.34992 13.8611 9.87715 14.1667L11.8334 12.2083C11.9583 12.0833 12.1213 11.9896 12.3225 11.9271C12.5237 11.8646 12.7214 11.8472 12.9157 11.875L15.7877 12.4583C15.9819 12.5139 16.1415 12.6146 16.2663 12.7604C16.3912 12.9062 16.4536 13.0694 16.4536 13.25V16.625C16.4536 16.875 16.3704 17.0833 16.2039 17.25C16.0374 17.4167 15.8293 17.5 15.5795 17.5ZM3.98745 7.5L5.36102 6.125L5.00722 4.16667H3.15498C3.22436 4.73611 3.32148 5.29861 3.44635 5.85417C3.57122 6.40972 3.75158 6.95833 3.98745 7.5ZM11.438 14.9583C11.9791 15.1944 12.5306 15.3819 13.0926 15.5208C13.6545 15.6597 14.2199 15.75 14.7887 15.7917V13.9583L12.8324 13.5625L11.438 14.9583Z" fill="#030303"/>
</g>
</svg>
