<svg xmlns="http://www.w3.org/2000/svg" width="16" height="16" fill="none" viewBox="0 0 16 16"><path fill="var(--card-color-icon,currentColor)" fill-rule="evenodd" d="m12.47 7.47 2.97-2.97-2.97-2.97-.94.94 1.365 1.365h-2.67L8.53 5.53l.94.94 1.305-1.305h2.12L11.53 6.53l.94.94ZM3.225 5.165H1v-1.33h2.775l7 7h2.12L11.53 9.47l.94-.94 2.97 2.97-2.97 2.97-.94-.94 1.365-1.365h-2.67l-7-7Zm1.124 5.487L3.5 8.5l-.849 2.152L.5 11.5l2.151.849L3.5 14.5l.849-2.151L6.5 11.5l-2.151-.848Z" clip-rule="evenodd"/></svg>