<svg width="66" height="66" viewBox="0 0 66 66" fill="none" xmlns="http://www.w3.org/2000/svg">
<mask id="mask0_6_415" style="mask-type:alpha" maskUnits="userSpaceOnUse" x="0" y="0" width="66" height="66">
<rect y="0.333252" width="65.3333" height="65.3333" fill="#D9D9D9"/>
</mask>
<g mask="url(#mask0_6_415)">
<path d="M32.6667 59.2796C26.6392 59.2796 21.5029 58.5598 17.2576 57.1202C13.0118 55.6806 10.8889 53.6782 10.8889 51.113C10.8889 49.8707 11.456 48.741 12.5903 47.7238C13.7246 46.7061 15.2479 45.8833 17.1602 45.2554L19.3857 47.2658C17.7732 47.7331 16.4075 48.3027 15.2887 48.9747C14.1703 49.6466 13.6111 50.3594 13.6111 51.113C13.6111 52.5022 15.3962 53.7569 18.9664 54.8771C22.5366 55.9973 27.1034 56.5574 32.6667 56.5574C38.23 56.5574 42.7968 55.9973 46.367 54.8771C49.9372 53.7569 51.7223 52.5022 51.7223 51.113C51.7223 50.3594 51.1631 49.6466 50.0447 48.9747C48.9258 48.3027 47.5602 47.7331 45.9477 47.2658L48.1732 45.2554C50.0855 45.8833 51.6088 46.7061 52.7431 47.7238C53.8773 48.741 54.4445 49.8707 54.4445 51.113C54.4445 53.6782 52.3216 55.6806 48.0758 57.1202C43.8305 58.5598 38.6941 59.2796 32.6667 59.2796ZM32.6667 49.8567C31.9825 49.8567 31.3326 49.7303 30.7169 49.4776C30.1008 49.2244 29.5291 48.8796 29.0019 48.4431L11.8519 33.3192C11.5416 33.0297 11.3034 32.7051 11.1373 32.3453C10.9717 31.9859 10.8889 31.6125 10.8889 31.2251V25.8854C10.8889 25.463 10.949 25.0636 11.0693 24.687C11.1899 24.31 11.4055 23.9765 11.7158 23.6866L28.9706 7.64111C29.4629 7.15973 30.0284 6.79858 30.6672 6.55766C31.3056 6.31675 31.9721 6.19629 32.6667 6.19629C33.3613 6.19629 34.0278 6.31675 34.6662 6.55766C35.305 6.79858 35.8705 7.15973 36.3628 7.64111L53.6176 23.6866C53.9279 23.9765 54.1434 24.31 54.2641 24.687C54.3844 25.0636 54.4445 25.463 54.4445 25.8854V31.2251C54.4445 31.6125 54.3617 31.9859 54.1961 32.3453C54.03 32.7051 53.7918 33.0297 53.4815 33.3192L36.3315 48.4431C35.8043 48.8796 35.2326 49.2244 34.6165 49.4776C34.0008 49.7303 33.3509 49.8567 32.6667 49.8567ZM24.5 28.2361C25.3131 28.2361 25.9963 27.9595 26.5499 27.4065C27.1029 26.8534 27.3795 26.1701 27.3795 25.3566C27.3795 24.5436 27.1029 23.8606 26.5499 23.3075C25.9963 22.754 25.3131 22.4772 24.5 22.4772C23.687 22.4772 23.0037 22.754 22.4502 23.3075C21.8971 23.8606 21.6206 24.5436 21.6206 25.3566C21.6206 26.1701 21.8971 26.8534 22.4502 27.4065C23.0037 27.9595 23.687 28.2361 24.5 28.2361ZM28.8454 32.2255C30.6216 32.9337 32.4564 33.1091 34.3497 32.7516C36.243 32.3936 37.9192 31.576 39.3783 30.2988C40.7113 29.1224 41.6074 27.6758 42.0665 25.9589C42.5252 24.2417 42.4526 22.5507 41.8488 20.8861L28.8454 32.2255ZM32.6667 20.0694C33.4797 20.0694 34.163 19.7929 34.7165 19.2398C35.2696 18.6868 35.5461 18.0035 35.5461 17.19C35.5461 16.3769 35.2696 15.6939 34.7165 15.1408C34.163 14.5873 33.4797 14.3106 32.6667 14.3106C31.8537 14.3106 31.1704 14.5873 30.6169 15.1408C30.0638 15.6939 29.7873 16.3769 29.7873 17.19C29.7873 18.0035 30.0638 18.6868 30.6169 19.2398C31.1704 19.7929 31.8537 20.0694 32.6667 20.0694Z" fill="black"/>
</g>
</svg>
