<svg width="66" height="66" viewBox="0 0 66 66" fill="none" xmlns="http://www.w3.org/2000/svg">
<mask id="mask0_6_429" style="mask-type:alpha" maskUnits="userSpaceOnUse" x="0" y="0" width="66" height="66">
<rect y="0.333252" width="65.3333" height="65.3333" fill="#D9D9D9"/>
</mask>
<g mask="url(#mask0_6_429)">
<path d="M34.2163 60.2221C30.7051 60.2221 27.4209 59.3801 24.3639 57.6959C21.3068 56.0122 18.8394 53.6679 16.9615 50.663L6.61703 34.0364L7.43915 33.2143C7.92778 32.7152 8.50966 32.4326 9.18477 32.3663C9.86034 32.3001 10.4808 32.4607 11.0461 32.8481L21.7778 39.9572V13.9443C21.7778 13.5918 21.9078 13.277 22.1677 12.9997C22.4277 12.7221 22.7514 12.5832 23.1389 12.5832C23.4914 12.5832 23.8063 12.7221 24.0835 12.9997C24.3612 13.277 24.5 13.5918 24.5 13.9443V31.6388H31.7765V8.49991C31.7765 8.14738 31.9065 7.83251 32.1665 7.55529C32.4264 7.27763 32.7501 7.13879 33.1376 7.13879C33.5251 7.13879 33.8488 7.27763 34.1088 7.55529C34.3687 7.83251 34.4987 8.14738 34.4987 8.49991V31.6388H41.7759V11.2221C41.7759 10.8696 41.9059 10.5547 42.1659 10.2775C42.4258 9.99985 42.7495 9.86102 43.137 9.86102C43.524 9.86102 43.8477 9.99985 44.1082 10.2775C44.3681 10.5547 44.4981 10.8696 44.4981 11.2221V31.6388H51.7222V15.3055C51.7222 14.9529 51.8522 14.6381 52.1122 14.3608C52.3721 14.0832 52.6959 13.9443 53.0833 13.9443C53.4359 13.9443 53.7507 14.0832 54.0279 14.3608C54.3056 14.6381 54.4444 14.9529 54.4444 15.3055V40.0464C54.4444 45.6687 52.4788 50.4369 48.5474 54.351C44.6156 58.2651 39.8386 60.2221 34.2163 60.2221Z" fill="#1C1B1F"/>
</g>
</svg>
