<svg width="277" height="69" viewBox="0 0 277 69" fill="none" xmlns="http://www.w3.org/2000/svg">
<g clip-path="url(#clip0_6_365)">
<path d="M2.16455 50.9597L2.16456 17.1226L19.0831 26.5218V41.6544L32.618 49.2678L46.1527 41.6544V26.5218L63.0714 17.1226V50.9597L32.618 67.8781L2.16455 50.9597Z" fill="black"/>
<path fill-rule="evenodd" clip-rule="evenodd" d="M10.6238 21.8223L2.16455 17.1226L32.618 0.204041L63.0714 17.1226L54.6121 21.8223V46.73L32.618 59.419L10.6238 46.73L10.6238 21.8223ZM53.6957 22.3314L46.1527 26.5218V26.4278L32.618 18.8144L19.0831 26.4278V26.5218L11.5402 22.3314V46.2095L32.618 58.3697L53.6957 46.2095V22.3314Z" fill="black"/>
<path d="M79.2861 48.2856V19.8624H84.6459V43.4129H97.6394V48.2856H79.2861Z" fill="black"/>
<path d="M109.211 48.8539C107.208 48.8539 105.408 48.4479 103.811 47.6357C102.214 46.8236 100.955 45.6461 100.035 44.1032C99.1143 42.5603 98.6541 40.706 98.6541 38.5404V37.8906C98.6541 35.7251 99.1143 33.8708 100.035 32.3278C100.955 30.7849 102.214 29.6074 103.811 28.7954C105.408 27.9831 107.208 27.5771 109.211 27.5771C111.215 27.5771 113.015 27.9831 114.612 28.7954C116.209 29.6074 117.468 30.7849 118.388 32.3278C119.308 33.8708 119.769 35.7251 119.769 37.8906V38.5404C119.769 40.706 119.308 42.5603 118.388 44.1032C117.468 45.6461 116.209 46.8236 114.612 47.6357C113.015 48.4479 111.215 48.8539 109.211 48.8539ZM109.211 44.3062C110.781 44.3062 112.081 43.8055 113.109 42.8038C114.138 41.7752 114.652 40.3133 114.652 38.4185V38.0125C114.652 36.1177 114.138 34.6693 113.109 33.6678C112.108 32.6392 110.808 32.1249 109.211 32.1249C107.641 32.1249 106.342 32.6392 105.313 33.6678C104.285 34.6693 103.77 36.1177 103.77 38.0125V38.4185C103.77 40.3133 104.285 41.7752 105.313 42.8038C106.342 43.8055 107.641 44.3062 109.211 44.3062Z" fill="black"/>
<path d="M121.689 38.2967V37.6471C121.689 35.5356 122.109 33.7355 122.948 32.2466C123.787 30.7307 124.897 29.5802 126.278 28.7954C127.685 27.9831 129.215 27.5771 130.866 27.5771C132.707 27.5771 134.101 27.902 135.048 28.5517C135.996 29.2013 136.686 29.8781 137.119 30.582H137.85V28.1455H142.885V51.8587C142.885 53.2392 142.479 54.3354 141.667 55.1477C140.855 55.9868 139.772 56.4064 138.418 56.4064H124.938V51.9399H136.632C137.39 51.9399 137.769 51.5338 137.769 50.7217V45.4837H137.038C136.767 45.9168 136.388 46.3635 135.901 46.8236C135.414 47.2568 134.764 47.6222 133.952 47.9201C133.14 48.2178 132.111 48.3667 130.866 48.3667C129.215 48.3667 127.685 47.9741 126.278 47.189C124.897 46.377 123.787 45.2265 122.948 43.7378C122.109 42.2219 121.689 40.4082 121.689 38.2967ZM132.328 43.9002C133.898 43.9002 135.211 43.3994 136.266 42.3978C137.322 41.3963 137.85 39.9886 137.85 38.175V37.7689C137.85 35.9281 137.322 34.5206 136.266 33.546C135.238 32.5445 133.925 32.0436 132.328 32.0436C130.758 32.0436 129.445 32.5445 128.389 33.546C127.333 34.5206 126.805 35.9281 126.805 37.7689V38.175C126.805 39.9886 127.333 41.3963 128.389 42.3978C129.445 43.3994 130.758 43.9002 132.328 43.9002Z" fill="black"/>
<path d="M156.313 48.8539C154.309 48.8539 152.509 48.4479 150.912 47.6357C149.315 46.8236 148.056 45.6461 147.136 44.1032C146.216 42.5603 145.755 40.706 145.755 38.5404V37.8906C145.755 35.7251 146.216 33.8708 147.136 32.3278C148.056 30.7849 149.315 29.6074 150.912 28.7954C152.509 27.9831 154.309 27.5771 156.313 27.5771C158.316 27.5771 160.116 27.9831 161.713 28.7954C163.31 29.6074 164.569 30.7849 165.489 32.3278C166.41 33.8708 166.87 35.7251 166.87 37.8906V38.5404C166.87 40.706 166.41 42.5603 165.489 44.1032C164.569 45.6461 163.31 46.8236 161.713 47.6357C160.116 48.4479 158.316 48.8539 156.313 48.8539ZM156.313 44.3062C157.883 44.3062 159.182 43.8055 160.211 42.8038C161.239 41.7752 161.754 40.3133 161.754 38.4185V38.0125C161.754 36.1177 161.239 34.6693 160.211 33.6678C159.209 32.6392 157.91 32.1249 156.313 32.1249C154.743 32.1249 153.443 32.6392 152.415 33.6678C151.386 34.6693 150.872 36.1177 150.872 38.0125V38.4185C150.872 40.3133 151.386 41.7752 152.415 42.8038C153.443 43.8055 154.743 44.3062 156.313 44.3062Z" fill="black"/>
<path d="M169.765 48.2855V28.1455H174.881V48.2855H169.765ZM172.323 25.7905C171.403 25.7905 170.618 25.4928 169.968 24.8972C169.345 24.3016 169.034 23.5166 169.034 22.5422C169.034 21.5677 169.345 20.7827 169.968 20.1871C170.618 19.5916 171.403 19.2938 172.323 19.2938C173.271 19.2938 174.056 19.5916 174.678 20.1871C175.301 20.7827 175.612 21.5677 175.612 22.5422C175.612 23.5166 175.301 24.3016 174.678 24.8972C174.056 25.4928 173.271 25.7905 172.323 25.7905Z" fill="black"/>
<path d="M178.723 56.4064V28.1455H183.759V30.582H184.49C184.949 29.7969 185.666 29.1066 186.642 28.511C187.616 27.8884 189.01 27.5771 190.824 27.5771C192.449 27.5771 193.951 27.9831 195.33 28.7954C196.712 29.5802 197.821 30.7442 198.66 32.2873C199.5 33.8302 199.919 35.6981 199.919 37.8906V38.5404C199.919 40.733 199.5 42.6008 198.66 44.1437C197.821 45.6868 196.712 46.8643 195.33 47.6764C193.951 48.4615 192.449 48.8539 190.824 48.8539C189.605 48.8539 188.576 48.7049 187.737 48.4072C186.925 48.1366 186.262 47.7846 185.749 47.3515C185.261 46.8913 184.868 46.4312 184.571 45.971H183.84V56.4064H178.723ZM189.281 44.3874C190.878 44.3874 192.191 43.8865 193.219 42.885C194.275 41.8564 194.803 40.3675 194.803 38.4185V38.0125C194.803 36.0635 194.275 34.5881 193.219 33.5866C192.164 32.558 190.851 32.0436 189.281 32.0436C187.71 32.0436 186.397 32.558 185.342 33.5866C184.286 34.5881 183.759 36.0635 183.759 38.0125V38.4185C183.759 40.3675 184.286 41.8564 185.342 42.885C186.397 43.8865 187.71 44.3874 189.281 44.3874Z" fill="black"/>
<path d="M211.154 48.8539C208.528 48.8539 206.376 48.2855 204.697 47.1485C203.021 46.0115 202.005 44.3874 201.652 42.2759L206.363 41.0579C206.552 42.0052 206.864 42.7497 207.296 43.2911C207.757 43.8325 208.312 44.2249 208.962 44.4686C209.637 44.6851 210.369 44.7935 211.154 44.7935C212.344 44.7935 213.225 44.5904 213.794 44.1844C214.361 43.7513 214.646 43.2234 214.646 42.6008C214.646 41.9782 214.376 41.5045 213.834 41.1796C213.293 40.8277 212.427 40.5435 211.235 40.327L210.098 40.1239C208.69 39.8532 207.404 39.4878 206.241 39.0276C205.077 38.5404 204.143 37.8771 203.438 37.038C202.736 36.1988 202.383 35.116 202.383 33.7895C202.383 31.7865 203.114 30.257 204.577 29.2013C206.037 28.1185 207.961 27.5771 210.342 27.5771C212.589 27.5771 214.457 28.078 215.945 29.0796C217.434 30.0811 218.408 31.394 218.869 33.0182L214.118 34.4799C213.902 33.4513 213.456 32.7203 212.778 32.2873C212.128 31.8542 211.316 31.6375 210.342 31.6375C209.367 31.6375 208.623 31.8135 208.108 32.1654C207.595 32.4903 207.338 32.9505 207.338 33.546C207.338 34.1957 207.608 34.6828 208.15 35.0077C208.69 35.3055 209.421 35.5356 210.342 35.6981L211.478 35.901C212.994 36.1717 214.361 36.5372 215.581 36.9973C216.825 37.4305 217.8 38.0666 218.504 38.9058C219.235 39.7179 219.601 40.8277 219.601 42.2354C219.601 44.3469 218.828 45.9845 217.284 47.1485C215.77 48.2855 213.726 48.8539 211.154 48.8539Z" fill="black"/>
<path d="M229.929 48.6103C228.361 48.6103 226.979 48.2584 225.789 47.5547C224.625 46.8237 223.718 45.8222 223.068 44.5499C222.419 43.2777 222.093 41.8158 222.093 40.1647V28.1456H227.21V39.7585C227.21 41.2744 227.575 42.4114 228.307 43.1693C229.063 43.9273 230.133 44.3062 231.514 44.3062C233.083 44.3062 234.302 43.7919 235.169 42.7633C236.035 41.7076 236.467 40.2459 236.467 38.3781V28.1456H241.584V48.2856H236.548V45.6462H235.819C235.493 46.323 234.884 46.9862 233.991 47.6358C233.097 48.2856 231.743 48.6103 229.929 48.6103Z" fill="black"/>
<path d="M245.45 48.2855V28.1456H250.484V30.3383H251.215C251.567 29.6615 252.15 29.0796 252.961 28.5922C253.773 28.078 254.843 27.8209 256.17 27.8209C257.604 27.8209 258.754 28.1051 259.621 28.6735C260.487 29.2148 261.15 29.9322 261.611 30.8255H262.34C262.801 29.9594 263.452 29.242 264.291 28.6735C265.13 28.1051 266.32 27.8209 267.864 27.8209C269.108 27.8209 270.232 28.0916 271.234 28.6329C272.262 29.1471 273.074 29.9457 273.67 31.0286C274.292 32.0842 274.603 33.4242 274.603 35.0485V48.2855H269.487V35.4139C269.487 34.3039 269.204 33.4784 268.635 32.937C268.066 32.3686 267.268 32.0842 266.239 32.0842C265.076 32.0842 264.168 32.4633 263.518 33.2212C262.897 33.952 262.585 35.0078 262.585 36.3884V48.2855H257.469V35.4139C257.469 34.3039 257.184 33.4784 256.617 32.937C256.048 32.3686 255.25 32.0842 254.22 32.0842C253.056 32.0842 252.15 32.4633 251.5 33.2212C250.877 33.952 250.565 35.0078 250.565 36.3884V48.2855H245.45Z" fill="black"/>
</g>
<defs>
<clipPath id="clip0_6_365">
<rect width="275.554" height="68.4383" fill="white" transform="translate(0.581848 0.204041)"/>
</clipPath>
</defs>
</svg>
