<svg width="278" height="81" viewBox="0 0 278 81" fill="none" xmlns="http://www.w3.org/2000/svg">
<path d="M92.642 51.2293V20.4105H87.5884V51.2293H92.642Z" fill="black"/>
<path d="M95.735 40.9563C95.735 47.2526 99.9602 51.7263 106.381 51.7263C112.801 51.7263 117.027 47.2526 117.027 40.9563C117.027 34.66 112.801 30.1863 106.381 30.1863C99.9602 30.1863 95.735 34.66 95.735 40.9563ZM100.83 40.9563C100.83 37.2696 103.026 34.7014 106.381 34.7014C109.736 34.7014 111.932 37.2696 111.932 40.9563C111.932 44.6015 109.736 47.2112 106.381 47.2112C103.026 47.2112 100.83 44.6015 100.83 40.9563Z" fill="black"/>
<path d="M118.726 40.5422C118.726 46.5071 122.579 50.8151 128.336 50.8151C131.319 50.8151 133.887 49.6138 135.171 47.6255V51.1051C135.171 54.4603 133.059 56.6972 129.538 56.6972C126.39 56.6972 124.236 55.1645 123.946 52.472H118.851C119.513 57.8156 123.614 61.2952 129.248 61.2952C135.876 61.2952 140.101 56.9457 140.101 50.1938V30.7663H135.627L135.337 33.5416C134.094 31.3876 131.526 30.1035 128.502 30.1035C122.662 30.1035 118.726 34.5358 118.726 40.5422ZM123.863 40.4179C123.863 37.0212 126.017 34.5358 129.206 34.5358C132.686 34.5358 135.006 37.0626 135.006 40.4179C135.006 43.8146 132.686 46.4242 129.206 46.4242C126.058 46.4242 123.863 43.856 123.863 40.4179Z" fill="black"/>
<path d="M142.602 40.9563C142.602 47.2526 146.827 51.7263 153.247 51.7263C159.668 51.7263 163.893 47.2526 163.893 40.9563C163.893 34.66 159.668 30.1863 153.247 30.1863C146.827 30.1863 142.602 34.66 142.602 40.9563ZM147.697 40.9563C147.697 37.2696 149.892 34.7014 153.247 34.7014C156.603 34.7014 158.798 37.2696 158.798 40.9563C158.798 44.6015 156.603 47.2112 153.247 47.2112C149.892 47.2112 147.697 44.6015 147.697 40.9563Z" fill="black"/>
<path d="M169.362 26.5824C171.019 26.5824 172.386 25.2569 172.386 23.5585C172.386 21.9016 171.019 20.576 169.362 20.576C167.664 20.576 166.38 21.9016 166.38 23.5585C166.38 25.2569 167.664 26.5824 169.362 26.5824ZM166.835 51.2292H171.889V30.7662H166.835V51.2292Z" fill="black"/>
<path d="M176.316 60.7151H181.246V48.4125C182.53 50.525 185.306 51.7677 188.371 51.7677C194.419 51.7677 198.023 47.1283 197.94 40.7492C197.815 34.3286 194.129 30.1448 188.33 30.1448C185.223 30.1448 182.406 31.5118 181.163 33.8729L180.873 30.7662H176.316V60.7151ZM181.453 40.9977C181.453 37.311 183.69 34.7428 187.211 34.7428C190.732 34.7428 192.845 37.3525 192.845 40.9977C192.845 44.6429 190.732 47.2112 187.211 47.2112C183.69 47.2112 181.453 44.6844 181.453 40.9977Z" fill="black"/>
<path d="M199.222 45.0986C199.388 49.1581 202.536 51.7677 207.424 51.7677C212.229 51.7677 215.501 49.1995 215.501 45.2229C215.501 42.2818 213.679 40.2935 210.323 39.4651L206.72 38.5952C205.187 38.1809 204.151 37.6424 204.151 36.3169C204.151 34.9085 205.27 33.9143 207.092 33.9143C208.998 33.9143 210.241 34.9913 210.241 36.7725H214.839C214.673 32.7131 211.649 30.1448 207.217 30.1448C202.826 30.1448 199.553 32.7131 199.553 36.6069C199.553 39.2579 201.086 41.4534 205.021 42.4889L208.584 43.4003C209.909 43.7731 210.738 44.3944 210.738 45.5543C210.738 47.1698 209.205 47.9154 207.341 47.9154C205.104 47.9154 203.82 46.8798 203.82 45.0986H199.222Z" fill="black"/>
<path d="M225.985 51.7678C228.76 51.7678 231.411 50.4837 232.613 48.5782L232.944 51.2293H237.666V30.7662H232.613V41.4948C232.613 45.1815 231.204 47.2527 227.891 47.2527C225.322 47.2527 223.541 46.01 223.541 41.7848V30.7662H218.487V43.566C218.487 48.4539 221.139 51.7678 225.985 51.7678Z" fill="black"/>
<path d="M247.179 51.2292V39.4651C247.179 36.1512 249.126 34.5771 251.529 34.5771C253.931 34.5771 255.505 36.1098 255.505 39.0094V51.2292H260.435V39.5065C260.435 36.1512 262.34 34.5771 264.743 34.5771C267.187 34.5771 268.761 36.1098 268.761 39.0094V51.2292H273.649V37.8495C273.649 33.1273 271.039 30.1448 266.068 30.1448C262.961 30.1448 260.518 31.6361 259.523 34.0386C258.405 31.6361 256.168 30.1448 252.771 30.1448C250.369 30.1448 248.215 31.2633 247.014 33.0859L246.765 30.7662H242.126V51.2292H247.179Z" fill="black"/>
<path d="M235.064 69.5167C235.817 69.5167 236.47 68.8828 236.47 68.13C236.47 67.3573 235.817 66.7234 235.064 66.7234C234.291 66.7234 233.638 67.3573 233.638 68.13C233.638 68.8828 234.291 69.5167 235.064 69.5167Z" fill="black"/>
<path d="M237.924 64.4054C237.924 67.4365 239.786 69.477 242.5 69.477C244.838 69.477 246.621 68.0704 246.997 65.9704H245.214C244.878 67.1393 243.847 67.8327 242.619 67.8327C240.876 67.8327 239.766 66.4855 239.766 64.3856C239.766 62.246 240.935 60.9384 242.659 60.9384C243.847 60.9384 244.878 61.5724 245.195 62.8205H246.978C246.661 60.7007 244.997 59.2743 242.679 59.2743C239.865 59.2743 237.924 61.3545 237.924 64.4054Z" fill="black"/>
<path d="M247.7 64.3857C247.7 67.2979 249.681 69.4771 252.653 69.4771C255.624 69.4771 257.605 67.2979 257.605 64.3857C257.605 61.4735 255.624 59.2943 252.653 59.2943C249.681 59.2943 247.7 61.4735 247.7 64.3857ZM249.582 64.3857C249.582 62.4046 250.79 60.9584 252.653 60.9584C254.515 60.9584 255.723 62.4046 255.723 64.3857C255.723 66.3668 254.515 67.813 252.653 67.813C250.79 67.813 249.582 66.3668 249.582 64.3857Z" fill="black"/>
<path d="M261.058 69.2592V63.4348C261.058 61.9093 262.009 60.9188 263.395 60.9188C264.723 60.9188 265.555 61.7706 265.555 63.2961V69.2592H267.378V63.4546C267.378 61.9093 268.309 60.9188 269.715 60.9188C271.023 60.9188 271.855 61.7706 271.855 63.2961V69.2592H273.658V62.8999C273.658 60.6612 272.35 59.2943 270.131 59.2943C268.626 59.2943 267.457 60.0273 266.981 61.2159C266.486 60.0273 265.396 59.2943 263.812 59.2943C262.603 59.2943 261.533 59.849 260.998 60.7999L260.86 59.5716H259.196V69.2592H261.058Z" fill="black"/>
<path fill-rule="evenodd" clip-rule="evenodd" d="M3.60205 41.2072L3.60553 40.8463L3.61269 40.4852L3.62357 40.1241L3.63814 39.763L3.65644 39.4019L3.67843 39.0408L3.70415 38.6799L3.73356 38.3189L3.7667 37.9582L3.80355 37.5974L3.84411 37.2372L3.88836 36.877L3.93634 36.5172L3.98802 36.1577L4.04341 35.7986L4.1025 35.44L4.1653 35.0816L4.23177 34.7239L4.30196 34.3666L4.37584 34.0098L4.4534 33.6536L4.53463 33.2981L4.61957 32.9433L4.70814 32.589L4.80041 32.2357L4.89631 31.8828L4.99589 31.5309L5.0991 31.1799L5.20596 30.8298L5.31643 30.4806L5.43054 30.1323L5.54827 29.7849L5.66961 29.4385L5.79453 29.0933L5.92304 28.7491L6.05513 28.406L6.1908 28.0642L6.33002 27.7234L6.47278 27.3841L6.61908 27.0459L6.76891 26.7089L6.92224 26.3734L7.07908 26.0393L7.2394 25.7065L7.4032 25.3751L7.57046 25.0453L7.74116 24.717L7.9153 24.3901L8.09285 24.065L8.27379 23.7414L8.45814 23.4194L8.64584 23.0992L8.83691 22.7806L9.03131 22.4638L9.22905 22.1488L9.43008 21.8356L9.6344 21.5244L9.842 21.2148L10.0528 20.9073L10.2669 20.6017L10.4842 20.298L10.7047 19.9966L10.9284 19.6969L11.1552 19.3995L11.3852 19.1042L11.6182 18.8108L11.8544 18.5198L12.0936 18.231L12.3359 17.9443L12.5813 17.66L12.8296 17.3779L13.0809 17.0982L13.3352 16.8208L13.5924 16.5459L13.8526 16.2733L14.1156 16.0032L14.3815 15.7355L14.6503 15.4704L14.9218 15.2078L15.1962 14.9477L15.4733 14.6903L15.7532 14.4355L16.0358 14.1833L16.3211 13.9338L16.6091 13.6869L16.8997 13.4429L17.1929 13.2016L17.4887 12.963L17.787 12.7273L18.0879 12.4944L18.3912 12.2643L18.6972 12.0372L19.0055 11.813L19.3162 11.5917L19.6292 11.3733L19.9448 11.158L20.2625 10.9456L20.5825 10.7363L20.9049 10.5301L21.2296 10.3269L21.5563 10.1269L21.8853 9.92994L22.2164 9.73617L22.5496 9.54556L22.8849 9.35815L23.2222 9.17396L23.5615 8.993L23.9028 8.81531L24.2461 8.64088L24.5914 8.46977L24.9384 8.30197L25.2874 8.1375L25.6381 7.9764L25.9907 7.81869L26.345 7.66436L26.7011 7.51345L27.0587 7.36599L27.418 7.22196L27.779 7.08139L28.1415 6.94433L28.5055 6.81075L28.8711 6.68072L29.2381 6.5542L29.6066 6.43123L29.9764 6.31184L30.3476 6.19602L30.7202 6.08379L31.0941 5.97519L31.469 5.87021L31.8454 5.76885L32.2229 5.67115L32.6015 5.57712L32.9812 5.48678L33.3621 5.4001L33.7439 5.31714L34.1266 5.23788L34.5104 5.16235L34.8951 5.09056L35.2807 5.0225L35.6672 4.9582L36.0544 4.89767L36.4423 4.8409L36.831 4.78793L37.2204 4.73875L37.6105 4.69336L38.0011 4.65176L38.3923 4.61401L38.784 4.58006L39.1763 4.54993L39.5689 4.52365L41.6804 4.40308L41.8009 14.5764L41.8699 14.5756L42.1614 14.5752L42.453 14.5776L42.7446 14.5829L43.0366 14.5911L43.3283 14.6022L43.6203 14.6161L43.9122 14.6329L44.2041 14.6526L44.4959 14.6751L44.7879 14.7005L45.0794 14.7288L45.371 14.76L45.6622 14.7941L45.9535 14.831L46.2443 14.8709L46.535 14.9135L46.8253 14.9591L47.1155 15.0076L47.4051 15.0589L47.6945 15.1131L47.9834 15.1701L48.2717 15.2301L48.5599 15.2928L48.8473 15.3585L49.1342 15.427L49.4208 15.4983L49.7066 15.5726L49.9917 15.6496L50.2762 15.7295L50.5603 15.8122L50.8434 15.8978L51.1258 15.9861L51.4075 16.0774L51.6884 16.1714L51.9685 16.2682L52.2476 16.3678L52.5261 16.4702L52.8034 16.5754L53.0799 16.6833L53.3554 16.7941L53.6299 16.9076L53.9033 17.0238L54.1758 17.1428L54.4472 17.2645L54.7173 17.389L54.9864 17.5161L55.2544 17.646L55.5211 17.7786L55.7866 17.9138L56.0508 18.0517L56.3138 18.1923L56.5754 18.3356L56.8357 18.4815L57.0947 18.63L57.3522 18.7811L57.6083 18.9349L57.863 19.0912L58.1162 19.25L58.3678 19.4116L58.618 19.5755L58.8665 19.7421L59.1136 19.9112L59.3589 20.0826L59.6028 20.2568L59.8448 20.4333L60.0851 20.6123L60.3239 20.7939L60.5607 20.9777L60.7959 21.1642L61.0292 21.3527L61.2608 21.5438L61.4904 21.7374L61.7182 21.9332L61.9442 22.1313L62.1683 22.3317L62.3902 22.5345L62.6103 22.7397L62.8284 22.947L63.0445 23.1564L63.2584 23.3682L63.4704 23.5822L63.6802 23.7985L63.8881 24.0168L64.0936 24.2372L64.2971 24.4598L64.4983 24.6846L64.6973 24.9113L64.8941 25.1402L65.0886 25.3711L65.281 25.604L65.471 25.839L65.6586 26.0759L65.844 26.3147L66.0269 26.5555L66.2076 26.7982L66.3857 27.0428L66.5615 27.2894L66.7347 27.5377L66.9057 27.7877L67.0741 28.0397L67.2399 28.2934L67.4033 28.549L67.5639 28.8062L67.7222 29.065L67.8778 29.3256L68.0309 29.5878L68.1813 29.8517L68.3292 30.1171L68.4743 30.3842L68.6168 30.6528L68.7566 30.9229L68.8936 31.1945L69.028 31.4675L69.1596 31.7422L69.2886 32.0181L69.4146 32.2955L69.538 32.5743L69.6585 32.8543L69.7761 33.1358L69.891 33.4184L70.003 33.7024L70.1122 33.9875L70.2184 34.274L70.3218 34.5615L70.4223 34.8504L70.5199 35.1402L70.6147 35.4312L70.7063 35.7231L70.7951 36.0162L70.8808 36.3103L70.9637 36.6053L71.0435 36.9014L71.1204 37.1983L71.194 37.496L71.265 37.7948L71.3327 38.0943L71.3974 38.3948L71.4592 38.6957L71.5177 38.9977L71.5732 39.3003L71.6257 39.6036L71.6751 39.9074L71.7214 40.212L71.7646 40.5172L71.8046 40.8229L71.8415 41.1292L71.8754 41.4359L71.906 41.7432L71.9335 42.0508L71.958 42.359L71.9793 42.6675L71.9973 42.9763L72.0122 43.2854L72.0241 43.595L72.0326 43.9046L72.0382 44.2145L72.0403 44.5247L72.0394 44.835L72.0353 45.1455L72.0279 45.4561L72.0175 45.7666L72.0038 46.0773L71.987 46.388L71.9669 46.6987L71.9436 47.0093L71.9171 47.3198L71.8874 47.6303L71.8547 47.9406L71.8185 48.2506L71.7792 48.5605L71.7369 48.8701L71.6911 49.1795L71.6423 49.4886L71.5903 49.7973L71.535 50.1056L71.4766 50.4136L71.415 50.7212L71.3502 51.0283L71.2821 51.3348L71.211 51.641L71.1368 51.9464L71.0591 52.2513L70.9785 52.5555L70.8947 52.8592L70.8077 53.1621L70.7177 53.4643L70.6244 53.766L70.5278 54.0666L70.4284 54.3666L70.3258 54.6656L70.2199 54.9638L70.1111 55.2612L69.9991 55.5575L69.884 55.8528L69.7658 56.1473L69.6446 56.4407L69.5204 56.733L69.393 57.0244L69.2626 57.3143L69.1292 57.6034L68.9927 57.8912L68.8533 58.1777L68.7106 58.4632L68.5653 58.7472L68.4167 59.0302L68.2654 59.3115L68.1109 59.5917L67.9537 59.8703L67.7934 60.1477L67.6302 60.4236L67.4642 60.6979L67.2952 60.9709L67.1232 61.2422L66.9485 61.5119L66.7711 61.7801L66.5907 62.0467L66.4075 62.3116L66.2215 62.5749L66.0327 62.8364L65.8411 63.0963L65.6468 63.3544L65.4497 63.6107L65.25 63.865L65.0476 64.1176L64.8424 64.3683L64.6346 64.6171L64.4241 64.864L64.211 65.1089L63.9952 65.3519L63.777 65.5928L63.5561 65.8318L63.3328 66.0687L63.1068 66.3035L62.8784 66.536L62.6474 66.7666L62.4139 66.9949L62.1782 67.2211L61.9399 67.4452L61.6993 67.6669L61.4562 67.8864L61.2107 68.1035L60.9631 68.3183L60.7129 68.531L60.4606 68.7412L60.2059 68.9488L59.9491 69.1543L59.6899 69.3573L59.4286 69.5578L59.1651 69.7557L58.8995 69.9513L58.6318 70.1444L58.3619 70.3347L58.0899 70.5227L57.816 70.7081L57.5401 70.8907L57.262 71.0708L56.9821 71.2484L56.7003 71.4231L56.4164 71.5952L56.1306 71.7645L55.843 71.9313L55.5537 72.0952L55.2623 72.2562L54.9695 72.4147L54.6747 72.5701L54.3782 72.7229L54.08 72.8729L53.7801 73.0198L53.4786 73.1639L53.1755 73.3053L52.8708 73.4436L52.5646 73.5791L52.2568 73.7114L51.9476 73.8409L51.6369 73.9675L51.3248 74.0911L51.0112 74.2116L50.6962 74.3292L50.38 74.4435L50.0623 74.555L49.7435 74.6633L49.4235 74.7686L49.102 74.8707L48.7794 74.9698L48.4558 75.0658L48.1311 75.1585L47.8051 75.2482L47.4782 75.3349L47.1501 75.4181L46.8212 75.4982L46.4912 75.5753L46.1602 75.649L45.8285 75.7195L45.4958 75.7869L45.1623 75.851L44.828 75.9119L44.493 75.9694L44.1571 76.0237L43.8207 76.0749L43.4834 76.1226L43.1457 76.1671L42.8073 76.2083L42.4682 76.2462L42.1287 76.2807L41.7886 76.3121L41.4482 76.34L41.1073 76.3647L40.766 76.3859L40.4242 76.4039L40.0822 76.4185L39.74 76.4297L39.3973 76.4376L39.0545 76.4421L38.7114 76.4434L38.3683 76.4412L38.0251 76.4356L37.6816 76.4268L37.3382 76.4144L36.9947 76.3987L36.6513 76.3798L36.308 76.3573L35.9645 76.3315L35.6214 76.3024L35.2784 76.2698L34.9354 76.2339L34.5929 76.1947L34.2505 76.152L33.9083 76.1059L33.5667 76.0563L33.2252 76.0036L32.8843 75.9474L32.5437 75.8879L32.2035 75.8249L31.864 75.7586L31.5249 75.6891L31.1865 75.616L30.8484 75.5396L30.5113 75.46L30.1747 75.377L29.8388 75.2906L29.5036 75.2009L29.1693 75.1079L28.8358 75.0116L28.503 74.912L28.1712 74.809L27.8404 74.7027L27.5104 74.5932L27.1814 74.4803L26.8534 74.3641L26.5265 74.2449L26.2007 74.1222L25.876 73.9963L25.5525 73.8672L25.2302 73.7348L24.909 73.5992L24.5892 73.4605L24.2706 73.3186L23.9533 73.1735L23.6374 73.0251L23.3229 72.8736L23.0099 72.7189L22.6981 72.5611L22.388 72.4003L22.0795 72.2362L21.7722 72.0693L21.4668 71.8991L21.163 71.7258L20.8607 71.5495L20.5602 71.3701L20.2614 71.1879L19.9642 71.0024L19.6688 70.8141L19.3755 70.6227L19.0837 70.4286L18.7939 70.2312L18.5061 70.0311L18.2201 69.8281L17.9361 69.6221L17.6541 69.4133L17.3741 69.2015L17.0962 68.987L16.8204 68.7698L16.5466 68.5496L16.2751 68.3268L16.0056 68.1011L15.7384 67.8727L15.4734 67.6417L15.2107 67.4077L14.9503 67.1712L14.6922 66.9323L14.4364 66.6904L14.183 66.4462L13.9321 66.1991L13.6835 65.9496L13.4374 65.6977L13.1937 65.443L12.9526 65.186L12.7141 64.9265L12.478 64.6644L12.2446 64.4L12.0138 64.1333L11.7856 63.8641L11.5601 63.5926L11.3373 63.3187L11.1172 63.0426L10.8999 62.7642L10.6853 62.4836L10.4735 62.2007L10.2645 61.9155L10.0584 61.6283L9.85506 61.3389L9.65466 61.0475L9.45716 60.7539L9.2626 60.4582L9.07099 60.1606L8.88233 59.861L8.69669 59.5593L8.51406 59.2558L8.33447 58.9502L8.15795 58.6429L7.9845 58.3337L7.81414 58.0227L7.64692 57.7097L7.48281 57.395L7.32189 57.0788L7.16412 56.7607L7.00957 56.441L6.85824 56.1195L6.71012 55.7966L6.56527 55.4719L6.42367 55.1459L6.28537 54.8181L6.15039 54.4891L6.0187 54.1584L5.89036 53.8263L5.76538 53.493L5.64376 53.1581L5.52553 52.8221L5.41068 52.4848L5.29925 52.146L5.19126 51.8061L5.08669 51.465L4.9856 51.1228L4.88797 50.7794L4.79381 50.4348L4.70315 50.0894L4.616 49.7429L4.53236 49.3953L4.45227 49.0468L4.37571 48.6972L4.3027 48.3469L4.23325 47.9957L4.16737 47.6438L4.10507 47.291L4.04638 46.9375L3.99127 46.5832L3.93978 46.2282L3.8919 45.8725L3.84767 45.5163L3.80706 45.1595L3.77008 44.8022L3.73677 44.4445L3.7071 44.0861L3.6811 43.7274L3.65876 43.3682L3.64011 43.0088L3.62512 42.6489L3.61381 42.2889L3.60619 41.9285L3.60228 41.5679L3.60205 41.2072ZM38.5022 14.7895L38.42 7.85523L38.342 7.86276L37.984 7.90087L37.6269 7.94243L37.2699 7.98753L36.9144 8.03598L36.5592 8.08796L36.2044 8.14341L35.8507 8.20227L35.4974 8.26463L35.1458 8.33025L34.7937 8.39953L34.4441 8.47193L34.094 8.54799L33.7457 8.62727L33.3977 8.71008L33.0514 8.79606L32.706 8.8855L32.3614 8.97827L32.018 9.07439L31.6762 9.17373L31.3349 9.27649L30.9954 9.38245L30.6568 9.49177L30.32 9.60412L29.9837 9.72001L29.6493 9.839L29.3165 9.96115L28.9846 10.0866L28.6544 10.2152L28.3261 10.3468L27.9987 10.4818L27.6729 10.6199L27.3487 10.7611L27.0263 10.9053L26.7056 11.0527L26.3866 11.203L26.0687 11.3566L25.7532 11.5131L25.4393 11.6725L25.1272 11.835L24.8168 12.0005L24.5087 12.1688L24.2018 12.3403L23.8969 12.5147L23.5947 12.6916L23.2934 12.8719L22.9949 13.0547L22.6985 13.2403L22.4035 13.4289L22.1108 13.6203L21.8203 13.8145L21.5325 14.011L21.2458 14.2109L20.962 14.413L20.6803 14.6179L20.4006 14.8256L20.1234 15.0357L19.8488 15.2484L19.5757 15.4641L19.3058 15.6818L19.0378 15.9024L18.7723 16.1254L18.5092 16.351L18.2487 16.5787L17.9903 16.8093L17.7347 17.042L17.4814 17.2773L17.231 17.5147L16.9829 17.7546L16.7375 17.9967L16.4946 18.2411L16.2541 18.4881L16.0168 18.7368L15.7821 18.9876L15.5495 19.2414L15.3201 19.4968L15.0935 19.754L14.8693 20.0138L14.6483 20.2754L14.4298 20.5392L14.2142 20.8049L14.0014 21.0727L13.7914 21.3423L13.5845 21.6137L13.3803 21.8871L13.1789 22.1626L12.9808 22.4394L12.7853 22.7186L12.5929 22.9992L12.4035 23.2816L12.2169 23.5658L12.0335 23.8516L11.8531 24.1389L11.6757 24.4279L11.5015 24.7184L11.3301 25.0107L11.1619 25.3047L10.9969 25.5997L10.8349 25.8963L10.676 26.1945L10.5203 26.4941L10.3677 26.795L10.2184 27.097L10.0722 27.4005L9.92915 27.7052L9.78927 28.0114L9.6527 28.3185L9.51922 28.627L9.38901 28.9366L9.26213 29.2471L9.13842 29.5588L9.01795 29.8717L8.9008 30.1854L8.78688 30.5002L8.67634 30.8158L8.56898 31.1325L8.46495 31.4501L8.36426 31.7685L8.26689 32.0874L8.17277 32.4077L8.08206 32.7282L7.99465 33.0497L7.91057 33.3717L7.82983 33.6947L7.75245 34.0179L7.67843 34.3419L7.60776 34.6665L7.54046 34.9916L7.47652 35.317L7.41594 35.643L7.35874 35.9693L7.3049 36.2962L7.25446 36.6233L7.20738 36.9507L7.16369 37.2785L7.12336 37.6065L7.08642 37.9346L7.05287 38.2631L7.0227 38.5916L6.99591 38.9201L6.97249 39.249L6.95247 39.5778L6.93581 39.9065L6.92253 40.2354L6.91263 40.5641L6.90611 40.8927L6.90294 41.2213L6.90315 41.5498L6.90672 41.8779L6.91365 42.206L6.92394 42.5338L6.93757 42.8613L6.95457 43.1885L6.97489 43.5152L6.99855 43.8417L7.02555 44.1677L7.05588 44.4933L7.0895 44.8186L7.12646 45.1431L7.16671 45.4673L7.21026 45.7908L7.25711 46.1137L7.30725 46.4361L7.36063 46.7575L7.41731 47.0785L7.47722 47.3987L7.54039 47.718L7.60679 48.0368L7.67642 48.3545L7.74927 48.6715L7.82532 48.9876L7.90457 49.3027L7.98702 49.617L8.0726 49.93L8.16139 50.2423L8.25331 50.5535L8.34837 50.8637L8.44656 51.1727L8.54783 51.4805L8.65222 51.7872L8.7597 52.0927L8.87025 52.397L8.98382 52.7L9.10051 53.0018L9.22015 53.3022L9.34282 53.6014L9.46851 53.8991L9.59715 54.1954L9.72879 54.4904L9.86336 54.7839L10.0009 55.0759L10.1413 55.3664L10.2846 55.6552L10.4308 55.9427L10.5799 56.2285L10.7318 56.5127L10.8865 56.7953L11.044 57.0761L11.2044 57.3552L11.3675 57.6328L11.5333 57.9083L11.7018 58.1822L11.8732 58.4544L12.0472 58.7245L12.2238 58.9931L12.4032 59.2596L12.5851 59.5242L12.7696 59.7869L12.9568 60.0477L13.1465 60.3065L13.3388 60.5634L13.5335 60.818L13.7308 61.0707L13.9305 61.3212L14.1327 61.5698L14.3374 61.8163L14.5444 62.0605L14.7539 62.3026L14.9657 62.5425L15.1799 62.7802L15.3963 63.0156L15.615 63.2488L15.836 63.4797L16.0593 63.7085L16.2848 63.9348L16.5124 64.1587L16.7423 64.3804L16.9742 64.5996L17.2083 64.8166L17.4446 65.0311L17.6828 65.2431L17.923 65.4525L18.1654 65.6597L18.4098 65.8643L18.6558 66.0663L18.9041 66.2661L19.1541 66.4629L19.4061 66.6574L19.6598 66.8494L19.9156 67.0387L20.1729 67.2253L20.4321 67.4093L20.6929 67.5907L20.9557 67.7695L21.2199 67.9455L21.4861 68.1189L21.7535 68.2897L22.0228 68.4575L22.2936 68.6229L22.5658 68.7853L22.8397 68.9451L23.1149 69.1019L23.3917 69.2561L23.6698 69.4074L23.9495 69.556L24.2303 69.7017L24.5125 69.8447L24.7961 69.9846L25.081 70.1218L25.367 70.2562L25.6543 70.3877L25.9426 70.5161L26.2324 70.6418L26.5231 70.7644L26.8151 70.8844L27.1079 71.0013L27.4018 71.1151L27.6968 71.2262L27.9926 71.3343L28.2894 71.4393L28.5872 71.5414L28.8859 71.6406L29.1854 71.7368L29.4854 71.8299L29.7867 71.9201L30.0884 72.0073L30.391 72.0914L30.6942 72.1726L30.9981 72.2508L31.3026 72.3259L31.6075 72.398L31.9133 72.4671L32.2195 72.533L32.5261 72.5961L32.8333 72.656L33.1409 72.7129L33.4489 72.7668L33.7572 72.8176L34.0659 72.8653L34.375 72.91L34.6844 72.9516L34.9938 72.9903L35.3036 73.0258L35.6135 73.0582L35.9237 73.0877L36.234 73.114L36.5443 73.1374L36.8546 73.1576L37.1651 73.1749L37.4754 73.189L37.7857 73.2001L38.096 73.2082L38.4063 73.2131L38.7163 73.2151L39.0262 73.214L39.336 73.2098L39.6454 73.2028L39.9547 73.1926L40.2637 73.1794L40.5724 73.1632L40.8806 73.1439L41.1885 73.1218L41.4962 73.0966L41.8032 73.0683L42.1098 73.037L42.4159 73.0027L42.7214 72.9656L43.0265 72.9255L43.3308 72.8822L43.6347 72.8361L43.9378 72.7871L44.2403 72.7351L44.5422 72.6802L44.8431 72.6224L45.1434 72.5617L45.4429 72.4979L45.7415 72.4315L46.0392 72.3619L46.3362 72.2895L46.6321 72.2144L46.9271 72.1363L47.221 72.0554L47.5142 71.9717L47.8062 71.885L48.0972 71.7957L48.387 71.7037L48.6759 71.6086L48.9635 71.511L49.2497 71.4105L49.5351 71.3071L49.8191 71.2012L50.1019 71.0924L50.3834 70.9811L50.6635 70.8671L50.9423 70.7502L51.2198 70.6308L51.4959 70.5087L51.7704 70.3841L52.0437 70.2567L52.3155 70.1267L52.5857 69.9943L52.8546 69.8591L53.1217 69.7215L53.3873 69.5814L53.6515 69.4385L53.9137 69.2934L54.1745 69.1457L54.4335 68.9957L54.6912 68.8429L54.9466 68.6881L55.2009 68.5305L55.4529 68.3707L55.7032 68.2085L55.9519 68.0438L56.1989 67.8767L56.4434 67.7078L56.6864 67.5361L56.9275 67.3623L57.1667 67.1864L57.4041 67.0079L57.6391 66.8276L57.8727 66.6446L58.1038 66.4599L58.3329 66.2729L58.5603 66.0836L58.7855 65.8922L59.0082 65.6989L59.2292 65.5033L59.4479 65.3059L59.6645 65.1064L59.879 64.9049L60.091 64.7015L60.3012 64.4959L60.509 64.2884L60.7145 64.0791L60.9179 63.8678L61.1187 63.655L61.3171 63.4403L61.5138 63.2231L61.7076 63.0048L61.8994 62.7844L62.0885 62.5625L62.2755 62.3386L62.4599 62.1133L62.6418 61.8862L62.8215 61.6573L62.9986 61.4271L63.1734 61.195L63.3454 60.9616L63.5153 60.7263L63.6828 60.4895L63.847 60.2518L64.0093 60.0121L64.1687 59.7713L64.3257 59.5287L64.4804 59.2846L64.6321 59.0397L64.7812 58.7933L64.928 58.545L65.0717 58.2962L65.2131 58.0457L65.3519 57.7939L65.4877 57.5414L65.6212 57.2871L65.7519 57.0318L65.8796 56.7762L66.005 56.5185L66.1276 56.2598L66.2474 56.0005L66.3645 55.7401L66.4788 55.4786L66.5903 55.2163L66.6993 54.9527L66.8053 54.6883L66.9085 54.4237L67.009 54.1572L67.1067 53.8906L67.2017 53.6228L67.294 53.3545L67.3833 53.0852L67.4696 52.816L67.5535 52.5447L67.6342 52.2739L67.7122 52.0021L67.7874 51.73L67.8598 51.4567L67.9292 51.1835L67.996 50.9094L68.0597 50.6348L68.1208 50.3599L68.179 50.0844L68.2341 49.809L68.2865 49.5324L68.336 49.2564L68.3827 48.9795L68.4264 48.7023L68.4673 48.4251L68.5055 48.1474L68.5406 47.87L68.573 47.5914L68.6024 47.3139L68.629 47.0354L68.6526 46.7575L68.6735 46.4788L68.6915 46.201L68.7067 45.9224L68.7189 45.6436L68.7283 45.3656L68.7349 45.088L68.7385 44.8094L68.7394 44.5313L68.7375 44.2536L68.7326 43.9761L68.7249 43.6985L68.7142 43.4221L68.7009 43.1445L68.6847 42.8683L68.6656 42.592L68.6438 42.3166L68.6191 42.0407L68.5918 41.7661L68.5615 41.4912L68.5284 41.2173L68.4925 40.9435L68.454 40.6707L68.4124 40.3977L68.3683 40.1259L68.3214 39.855L68.2717 39.584L68.2191 39.3138L68.164 39.0447L68.106 38.7755L68.0457 38.5082L67.9821 38.2406L67.9164 37.9748L67.8474 37.7086L67.7761 37.4444L67.7021 37.1805L67.6253 36.9172L67.5461 36.6555L67.4642 36.3947L67.3793 36.1341L67.2923 35.8755L67.2023 35.6171L67.1101 35.3602L67.015 35.1039L66.9176 34.8495L66.8172 34.5953L66.7146 34.3427L66.6096 34.0916L66.5021 33.8416L66.3915 33.592L66.2793 33.3447L66.1638 33.0976L66.0464 32.8529L65.9265 32.609L65.8038 32.3661L65.6792 32.1251L65.5518 31.8852L65.422 31.6464L65.2905 31.4099L65.156 31.174L65.0195 30.94L64.8802 30.7072L64.7394 30.4766L64.5955 30.2466L64.45 30.0188L64.3018 29.7921L64.1516 29.5673L63.9994 29.3445L63.8445 29.1226L63.6876 28.9027L63.5288 28.6844L63.3676 28.4681L63.2044 28.2531L63.0391 28.0402L62.8718 27.8288L62.7023 27.6193L62.5308 27.4117L62.3572 27.2056L62.1816 27.0016L62.0042 26.7993L61.825 26.5991L61.6437 26.4006L61.46 26.2037L61.2754 26.0096L61.0877 25.8165L60.8991 25.6261L60.7084 25.4372L60.516 25.2506L60.3212 25.0655L60.1256 24.8832L59.9275 24.7024L59.7278 24.5238L59.5269 24.3474L59.3241 24.1731L59.119 24.0004L58.9128 23.8302L58.7051 23.6621L58.4957 23.4963L58.2846 23.3324L58.0724 23.1712L57.8579 23.0113L57.6427 22.8544L57.4257 22.6995L57.2071 22.5466L56.9875 22.3962L56.7656 22.2476L56.5437 22.1021L56.3193 21.9582L56.0942 21.8168L55.8673 21.6776L55.6395 21.5407L55.4104 21.4064L55.1804 21.2746L54.9482 21.1443L54.7161 21.0172L54.482 20.892L54.2469 20.7694L54.011 20.6492L53.7736 20.5313L53.5353 20.4157L53.2962 20.3027L53.0557 20.192L52.8148 20.0839L52.5725 19.978L52.3216 19.8714L52.0857 19.774L51.8402 19.6753L51.5951 19.5796L51.348 19.4858L51.1009 19.395L50.8527 19.3064L50.604 19.2205L50.3542 19.1368L50.1042 19.0559L49.8532 18.9774L49.6016 18.9014L49.3498 18.8281L49.0969 18.757L48.8432 18.6885L48.5898 18.6227L48.3358 18.5594L48.0803 18.4984L47.8256 18.4403L47.5697 18.3844L47.3138 18.3313L47.0569 18.2806L46.8005 18.2325L46.5433 18.187L46.2863 18.144L46.028 18.1035L45.7705 18.0657L45.5124 18.0303L45.254 17.9975L44.9955 17.9673L44.7371 17.9397L44.4784 17.9146L44.2196 17.892L43.9606 17.872L43.7015 17.8546L43.443 17.8397L43.1844 17.8274L42.9249 17.8175L42.6668 17.8103L42.4082 17.8056L42.1497 17.8034L41.8909 17.8038L41.8391 17.8044L41.9206 24.6882L42.0674 24.6875L42.2564 24.6885L42.4453 24.6914L42.6344 24.6963L42.8237 24.703L43.013 24.7116L43.2022 24.722L43.3917 24.7343L43.5812 24.7485L43.7706 24.7645L43.9601 24.7826L44.1494 24.8024L44.3389 24.8242L44.5281 24.8478L44.7173 24.8731L44.9064 24.9007L45.0953 24.9299L45.284 24.961L45.4728 24.9942L45.6612 25.0291L45.8494 25.066L46.0374 25.1048L46.2252 25.1453L46.4127 25.1878L46.5998 25.2323L46.7868 25.2786L46.9732 25.3266L47.1594 25.3767L47.3453 25.4286L47.5308 25.4824L47.7159 25.5381L47.9005 25.5955L48.0846 25.655L48.2683 25.7162L48.4516 25.7794L48.6343 25.8444L48.8165 25.9112L48.9981 25.9799L49.1792 26.0505L49.3597 26.1229L49.5396 26.1971L49.7188 26.2733L49.8975 26.3511L50.0754 26.4308L50.2526 26.5122L50.4291 26.5956L50.6051 26.6808L50.7802 26.7678L50.9545 26.8566L51.1281 26.9472L51.3008 27.0394L51.4728 27.1336L51.6439 27.2294L51.8141 27.327L51.9836 27.4264L52.1522 27.5277L52.3197 27.6305L52.4863 27.7351L52.6519 27.8416L52.8167 27.9496L52.9805 28.0593L53.1433 28.1708L53.305 28.2841L53.4656 28.3988L53.6252 28.5153L53.7837 28.6337L53.9413 28.7534L54.0974 28.875L54.2527 28.9982L54.4067 29.1228L54.5596 29.2492L54.7112 29.3773L54.8618 29.5068L55.0111 29.6379L55.1591 29.7706L55.3059 29.905L55.4513 30.0408L55.5955 30.1782L55.7383 30.3171L55.8799 30.4575L56.0202 30.5995L56.1591 30.743L56.2966 30.8878L56.4326 31.0342L56.5673 31.1821L56.7006 31.3314L56.8324 31.4819L56.9628 31.6341L57.0918 31.7876L57.2193 31.9425L57.3452 32.0988L57.4696 32.2564L57.5925 32.4154L57.7139 32.5757L57.8336 32.7374L57.9518 32.9002L58.0685 33.0645L58.1834 33.23L58.2968 33.3968L58.4085 33.5648L58.5186 33.7339L58.627 33.9045L58.7338 34.0761L58.8389 34.2488L58.9423 34.4228L59.0439 34.598L59.1439 34.7742L59.242 34.9516L59.3384 35.1301L59.4331 35.3096L59.526 35.4903L59.617 35.672L59.7063 35.8548L59.7938 36.0385L59.8794 36.2231L59.9631 36.409L60.0451 36.5955L60.1252 36.7832L60.2034 36.9718L60.2798 37.1612L60.3541 37.3516L60.4265 37.5427L60.4971 37.7349L60.5658 37.9278L60.6326 38.1215L60.6974 38.316L60.7601 38.5115L60.821 38.7074L60.8799 38.9043L60.9368 39.1018L60.9917 39.3001L61.0445 39.4991L61.0954 39.6987L61.1442 39.899L61.1911 40.0998L61.2359 40.3013L61.2786 40.5034L61.3193 40.706L61.3578 40.9091L61.3944 41.113L61.429 41.3172L61.4614 41.5218L61.4917 41.7272L61.5199 41.9327L61.546 42.1387L61.5702 42.3453L61.592 42.5522L61.6118 42.7593L61.6296 42.967L61.6451 43.1748L61.6586 43.383L61.6698 43.5914L61.679 43.8001L61.686 44.0092L61.6908 44.2183L61.6935 44.4278L61.6941 44.6374L61.6925 44.847L61.6887 45.0569L61.6827 45.2669L61.6746 45.477L61.6644 45.687L61.6519 45.8972L61.6374 46.1076L61.6206 46.3177L61.6015 46.5279L61.5804 46.7381L61.557 46.9481L61.5316 47.1583L61.5039 47.3681L61.474 47.5779L61.4419 47.7875L61.4077 47.997L61.3713 48.2063L61.3326 48.4154L61.2919 48.6243L61.2489 48.8328L61.2037 49.0412L61.1565 49.2492L61.107 49.4569L61.0553 49.6642L61.0014 49.8713L60.9454 50.0779L60.8872 50.2841L60.8269 50.4898L60.7644 50.6951L60.6998 50.9L60.6328 51.1045L60.5638 51.3082L60.4926 51.5115L60.4195 51.7143L60.3441 51.9164L60.2664 52.1179L60.1868 52.3189L60.1051 52.5192L60.0211 52.7189L59.935 52.9177L59.847 53.116L59.7567 53.3136L59.6644 53.5102L59.57 53.7062L59.4734 53.9014L59.3747 54.0958L59.2741 54.2894L59.1714 54.4819L59.0666 54.6737L58.9598 54.8646L58.851 55.0546L58.7401 55.2435L58.6272 55.4317L58.5123 55.6187L58.3954 55.8049L58.2763 55.9899L58.1555 56.1739L58.0325 56.3567L57.9077 56.5386L57.7809 56.7195L57.6521 56.899L57.5213 57.0775L57.3888 57.2549L57.2542 57.431L57.1177 57.6059L56.9794 57.7795L56.8391 57.9521L56.697 58.1232L56.5531 58.2932L56.4072 58.4618L56.2595 58.6291L56.1101 58.7949L55.9588 58.9596L55.8057 59.1227L55.651 59.2846L55.4943 59.4449L55.336 59.604L55.1757 59.7614L55.014 59.9175L54.8503 60.072L54.6851 60.2249L54.5182 60.3766L54.3494 60.5264L54.1792 60.6748L54.0072 60.8218L53.8338 60.967L53.6585 61.1107L53.4819 61.2526L53.3034 61.3929L53.1235 61.5316L52.9421 61.6686L52.7591 61.8039L52.5745 61.9375L52.3886 62.0695L52.2012 62.1996L52.0122 62.328L51.8217 62.4546L51.6299 62.5794L51.4366 62.7024L51.2421 62.8236L51.046 62.9428L50.8488 63.0604L50.65 63.1761L50.45 63.2897L50.2487 63.4016L50.0461 63.5116L49.8422 63.6197L49.6371 63.7257L49.4307 63.8298L49.2232 63.932L49.0145 64.0323L48.8045 64.1304L48.5934 64.2266L48.3812 64.3208L48.168 64.413L47.9535 64.5031L47.7381 64.5911L47.5216 64.6772L47.304 64.7611L47.0856 64.8431L46.866 64.9229L46.6456 65.0005L46.4241 65.076L46.2018 65.1494L45.9785 65.2206L45.7545 65.2897L45.5295 65.3567L45.3037 65.4214L45.0771 65.4841L44.8496 65.5444L44.6214 65.6026L44.3925 65.6586L44.1629 65.7124L43.9324 65.7639L43.7015 65.8133L43.4697 65.8603L43.2374 65.9051L43.0045 65.9478L42.7709 65.9882L42.5368 66.0262L42.3023 66.0618L42.0671 66.0953L41.8313 66.1265L41.5952 66.1555L41.3587 66.182L41.1217 66.2063L40.8843 66.2282L40.6466 66.2479L40.4085 66.2652L40.1701 66.2801L39.9313 66.2927L39.6923 66.303L39.4529 66.3109L39.2134 66.3165L38.9737 66.3197L38.7336 66.3206L38.4935 66.3192L38.2534 66.3152L38.013 66.3091L37.7726 66.3005L37.5321 66.2895L37.2915 66.2761L37.0511 66.2605L36.8105 66.2425L36.57 66.2219L36.3296 66.1991L36.0892 66.1739L35.8489 66.1463L35.6088 66.1164L35.3688 66.084L35.129 66.0492L34.8895 66.0121L34.6502 65.9727L34.411 65.9307L34.1722 65.8866L33.9337 65.8399L33.6956 65.7908L33.4577 65.7395L33.2203 65.6858L32.9833 65.6296L32.7467 65.5711L32.5106 65.5102L32.2748 65.447L32.0396 65.3814L31.8051 65.3135L31.571 65.2433L31.3374 65.1707L31.1045 65.0956L30.8724 65.0183L30.6406 64.9387L30.4097 64.8568L30.1795 64.7725L29.9499 64.6859L29.7212 64.5969L29.4932 64.5058L29.2659 64.4121L29.0395 64.3163L28.814 64.2183L28.5894 64.1178L28.3655 64.0152L28.1428 63.9103L27.9209 63.8032L27.6999 63.6937L27.4798 63.582L27.261 63.4682L27.0431 63.352L26.8262 63.2337L26.6105 63.1132L26.3958 62.9904L26.1822 62.8656L25.9698 62.7384L25.7586 62.6091L25.5486 62.4778L25.3399 62.3442L25.1324 62.2086L24.9262 62.0706L24.7212 61.9307L24.5175 61.7888L24.3153 61.6447L24.1143 61.4984L23.9147 61.3502L23.7164 61.1998L23.5198 61.0475L23.3245 60.8931L23.1307 60.7366L22.9384 60.5783L22.7475 60.4178L22.5582 60.2556L22.3705 60.0911L22.1843 59.9249L21.9997 59.7567L21.8169 59.5867L21.6355 59.4147L21.4558 59.2407L21.2779 59.0649L21.1017 58.8873L20.9272 58.7078L20.7543 58.5266L20.5832 58.3434L20.4141 58.1586L20.2466 57.9719L20.0809 57.7835L19.9172 57.5933L19.7551 57.4015L19.5952 57.2079L19.4369 57.0125L19.2807 56.8156L19.1264 56.617L18.974 56.4167L18.8236 56.2148L18.675 56.0115L18.5286 55.8064L18.3844 55.5998L18.2419 55.3916L18.1016 55.1819L17.9634 54.9709L17.8273 54.7582L17.6932 54.544L17.5613 54.3284L17.4315 54.1114L17.3039 53.8931L17.1784 53.6732L17.0552 53.4523L16.9341 53.2297L16.8153 53.006L16.6986 52.7808L16.5842 52.5545L16.4721 52.3268L16.3623 52.0979L16.2547 51.8679L16.1495 51.6365L16.0465 51.4041L15.9459 51.1706L15.8477 50.9357L15.7517 50.7L15.6582 50.4631L15.567 50.225L15.4783 49.986L15.3919 49.7461L15.308 49.505L15.2264 49.2631L15.1474 49.0202L15.0707 48.7763L14.9966 48.5317L14.9249 48.2861L14.8556 48.0397L14.7889 47.7924L14.7247 47.5442L14.663 47.2955L14.6038 47.0459L14.5472 46.7956L14.493 46.5445L14.4415 46.2929L14.3925 46.0406L14.346 45.7875L14.3022 45.5339L14.2609 45.2798L14.2222 45.0252L14.1861 44.77L14.1526 44.5142L14.1217 44.2579L14.0934 44.0013L14.0677 43.7443L14.0447 43.4867L14.0243 43.2288L14.0066 42.9708L13.9914 42.7121L13.979 42.4533L13.9692 42.1943L13.962 41.935L13.9575 41.6755L13.9557 41.4156L13.9565 41.1557L13.96 40.8956L13.9662 40.6356L13.975 40.3753L13.9866 40.1149L14.0008 39.8546L14.0177 39.5942L14.0373 39.334L14.0596 39.0736L14.0845 38.8135L14.1122 38.5532L14.1425 38.2934L14.1755 38.0335L14.2113 37.7738L14.2497 37.5142L14.2908 37.2551L14.3345 36.9961L14.381 36.7375L14.4301 36.479L14.482 36.2209L14.5365 35.9634L14.5937 35.706L14.6535 35.4492L14.7161 35.1927L14.7813 34.9368L14.8491 34.6814L14.9197 34.4264L14.9929 34.1721L15.0687 33.9183L15.1472 33.6651L15.2284 33.4124L15.3121 33.1607L15.3986 32.9094L15.4876 32.6589L15.5793 32.4091L15.6736 32.16L15.7705 31.9118L15.87 31.6644L15.9721 31.4178L16.0768 31.1722L16.184 30.9272L16.2939 30.6834L16.4063 30.4404L16.5213 30.1984L16.6388 29.9574L16.7589 29.7175L16.8815 29.4785L17.0066 29.2408L17.1342 29.0039L17.2643 28.7684L17.397 28.5339L17.5321 28.3005L17.6696 28.0685L17.8097 27.8376L17.9522 27.608L18.0971 27.3796L18.2444 27.1525L18.3943 26.9268L18.5463 26.7024L18.701 26.4795L18.8578 26.2578L19.0171 26.0375L19.1788 25.8189L19.3427 25.6015L19.5091 25.3857L19.6777 25.1714L19.8486 24.9587L20.0217 24.7476L20.1971 24.538L20.3748 24.33L20.5548 24.1236L20.7368 23.919L20.9213 23.716L21.1077 23.5146L21.2964 23.3151L21.4873 23.1172L21.6802 22.9212L21.8753 22.7269L22.0725 22.5344L22.2718 22.3438L22.4732 22.1549L22.6765 21.9681L22.882 21.783L23.0895 21.6L23.2988 21.4188L23.5102 21.2396L23.7236 21.0624L23.9388 20.8872L24.156 20.7139L24.3752 20.5428L24.5962 20.3737L24.819 20.2067L25.0438 20.0418L25.2702 19.879L25.4983 19.7183L25.7285 19.5598L25.9603 19.4035L26.1937 19.2495L26.4291 19.0975L26.6659 18.9478L26.9046 18.8004L27.1448 18.6552L27.3867 18.5123L27.63 18.3717L27.8751 18.2335L28.1217 18.0975L28.3697 17.9639L28.6193 17.8327L28.8704 17.7039L29.1229 17.5774L29.3768 17.4534L29.6322 17.3318L29.889 17.2126L30.1471 17.0959L30.4066 16.9817L30.6674 16.8699L30.9295 16.7607L31.1928 16.654L31.4572 16.5498L31.723 16.4481L31.9899 16.3491L32.2581 16.2525L32.5273 16.1586L32.7976 16.0672L33.0691 15.9785L33.3414 15.8924L33.6149 15.8089L33.8894 15.7281L34.165 15.6499L34.4412 15.5743L34.7186 15.5015L34.9969 15.4313L35.276 15.3639L35.5559 15.2991L35.8367 15.2371L36.1182 15.1777L36.4004 15.1211L36.6835 15.0673L36.9672 15.0162L37.2515 14.9679L37.5366 14.9223L37.8223 14.8795L38.1085 14.8395L38.3952 14.8023L38.5022 14.7895ZM38.6232 24.9996L38.5407 18.0401L38.3057 18.073L38.053 18.1108L37.8001 18.1512L37.5489 18.1939L37.2973 18.2392L37.0469 18.2869L36.7971 18.337L36.5482 18.3894L36.2999 18.4443L36.0521 18.5017L35.805 18.5614L35.5589 18.6234L35.3131 18.688L35.077 18.7524L34.8254 18.8239L34.5824 18.8954L34.3406 18.9693L34.1 19.0453L33.8599 19.1238L33.6207 19.2047L33.3826 19.2877L33.1458 19.3729L32.9098 19.4606L32.675 19.5503L32.441 19.6425L32.2089 19.7367L31.9767 19.8334L31.7464 19.9321L31.5171 20.0329L31.2895 20.136L31.0624 20.2413L30.8365 20.3488L30.6127 20.4582L30.3892 20.57L30.168 20.6836L29.9472 20.7998L29.7285 20.9174L29.5103 21.0379L29.2941 21.1596L29.0795 21.2837L28.8659 21.41L28.6539 21.538L28.443 21.6684L28.2343 21.8003L28.0264 21.9344L27.8206 22.0704L27.6161 22.2082L27.4132 22.3481L27.2115 22.4901L27.0121 22.6332L26.8138 22.7789L26.6171 22.9263L26.4223 23.0754L26.2292 23.2261L26.0374 23.379L25.8477 23.5334L25.6597 23.6895L25.4731 23.8478L25.2889 24.0072L25.1059 24.1688L24.9247 24.3319L24.7455 24.4966L24.5683 24.6628L24.3923 24.831L24.2189 25.0003L24.0471 25.1714L23.8769 25.3443L23.7089 25.5184L23.5426 25.6944L23.3784 25.8716L23.2161 26.0503L23.0556 26.2306L22.897 26.4125L22.741 26.5953L22.5865 26.7799L22.4339 26.9659L22.2835 27.153L22.1353 27.3414L21.9887 27.5316L21.8445 27.7227L21.7022 27.9152L21.5621 28.109L21.4239 28.3041L21.2881 28.5L21.1543 28.6974L21.0225 28.8961L20.8928 29.0958L20.7655 29.2964L20.6403 29.4983L20.5171 29.7016L20.3961 29.9055L20.2774 30.1107L20.1607 30.3169L20.0465 30.5236L19.9343 30.7318L19.8241 30.9411L19.7166 31.1507L19.611 31.3618L19.5078 31.5736L19.4068 31.786L19.3081 31.9996L19.2116 32.2137L19.1174 32.4287L19.0253 32.6445L18.9358 32.861L18.8485 33.0782L18.7633 33.2963L18.6804 33.5149L18.6001 33.7341L18.5218 33.9542L18.4461 34.1744L18.3725 34.3956L18.3013 34.6173L18.2324 34.8396L18.1659 35.0622L18.1016 35.2853L18.0398 35.5088L17.9802 35.733L17.923 35.9574L17.8682 36.1824L17.8157 36.4077L17.7656 36.6332L17.7177 36.8592L17.6723 37.0854L17.6292 37.3118L17.5885 37.5387L17.5502 37.7657L17.5141 37.9929L17.4805 38.2201L17.4492 38.4477L17.4202 38.6753L17.3937 38.9032L17.3694 39.131L17.3476 39.359L17.3281 39.587L17.3109 39.8148L17.2961 40.043L17.2837 40.271L17.2736 40.4989L17.2658 40.7267L17.2604 40.9543L17.2573 41.182L17.2566 41.4096L17.2582 41.6369L17.2621 41.864L17.2684 42.091L17.277 42.3175L17.2879 42.5441L17.3011 42.7703L17.3166 42.996L17.3345 43.2216L17.3546 43.4468L17.3771 43.6715L17.4018 43.8959L17.4288 44.12L17.4581 44.3437L17.4896 44.5666L17.5235 44.7894L17.5596 45.0113L17.5979 45.233L17.6385 45.4542L17.6813 45.6744L17.7264 45.8945L17.7736 46.1137L17.8231 46.3325L17.8748 46.5503L17.9287 46.7676L17.9848 46.9843L18.0431 47.2002L18.1034 47.4153L18.1661 47.6298L18.2307 47.8434L18.2977 48.0563L18.3667 48.2684L18.4379 48.4795L18.5112 48.6897L18.5864 48.8991L18.6639 49.1077L18.7435 49.3153L18.8251 49.5219L18.9086 49.7276L18.9944 49.9324L19.0821 50.1361L19.1719 50.3387L19.2636 50.5404L19.3574 50.7408L19.4533 50.9404L19.5509 51.1389L19.6506 51.3361L19.7522 51.5324L19.8558 51.7274L19.9613 51.9212L20.0687 52.1139L20.178 52.3054L20.2891 52.4956L20.4022 52.6845L20.5171 52.8723L20.6338 53.0587L20.7523 53.2439L20.8728 53.4279L20.9947 53.6102L21.1188 53.7916L21.2444 53.9713L21.3719 54.1498L21.501 54.3268L21.6319 54.5024L21.7645 54.6766L21.8988 54.8495L22.0346 55.0208L22.1722 55.1906L22.3115 55.359L22.4523 55.5259L22.5948 55.6911L22.7388 55.8552L22.8844 56.0173L23.0315 56.1781L23.1801 56.3371L23.3303 56.4947L23.4819 56.6507L23.6352 56.805L23.7897 56.9577L23.9459 57.1088L24.1035 57.2583L24.2621 57.406L24.4226 57.5522L24.5841 57.6965L24.7471 57.8391L24.9116 57.9802L25.0773 58.1194L25.2442 58.257L25.4124 58.3926L25.5819 58.5266L25.7526 58.6588L25.9246 58.7894L26.0979 58.918L26.2721 59.0447L26.4475 59.1697L26.6241 59.2929L26.8019 59.4143L26.9809 59.5339L27.1609 59.6515L27.3419 59.7673L27.5239 59.8813L27.7069 59.9933L27.891 60.1036L28.0761 60.2118L28.262 60.3181L28.4491 60.4225L28.6368 60.525L28.8257 60.6257L29.0153 60.7244L29.2057 60.8209L29.3972 60.9158L29.5895 61.0086L29.7824 61.0995L29.976 61.1883L30.1707 61.2753L30.3657 61.3601L30.5617 61.443L30.7584 61.524L30.9558 61.6029L31.1535 61.6798L31.3522 61.7547L31.5513 61.8277L31.7511 61.8986L31.9514 61.9674L32.1523 62.0344L32.3537 62.0991L32.5556 62.1619L32.758 62.2226L32.9608 62.2813L33.164 62.3381L33.3677 62.3926L33.5717 62.4454L33.7761 62.4958L33.9809 62.5443L34.186 62.5907L34.3915 62.6352L34.5972 62.6776L34.8031 62.7177L35.0095 62.7559L35.2157 62.7921L35.4224 62.8263L35.6292 62.8582L35.8361 62.8883L36.0432 62.9162L36.2504 62.9421L36.4577 62.9659L36.6649 62.9877L36.8724 63.0073L37.0799 63.025L37.2874 63.0405L37.4949 63.0541L37.7021 63.0655L37.9094 63.075L38.1169 63.0824L38.324 63.0878L38.531 63.0911L38.7379 63.0923L38.9447 63.0916L39.1512 63.0887L39.3576 63.084L39.5637 63.0772L39.7697 63.0684L39.9752 63.0574L40.1805 63.0446L40.3855 63.0297L40.5902 63.0127L40.7945 62.9938L40.9985 62.9729L41.2022 62.95L41.4054 62.9252L41.6082 62.8984L41.8104 62.8697L42.0123 62.8389L42.2137 62.8062L42.4143 62.7716L42.6148 62.7348L42.8145 62.6963L43.0137 62.6559L43.2125 62.6134L43.4103 62.5691L43.6077 62.523L43.8043 62.4748L44.0004 62.4249L44.1959 62.373L44.3905 62.3192L44.5845 62.2635L44.7778 62.2061L44.9701 62.1468L45.1617 62.0856L45.3528 62.0225L45.5428 61.9577L45.7321 61.8911L45.9205 61.8226L46.108 61.7524L46.2946 61.6803L46.4803 61.6065L46.6652 61.5309L46.8491 61.4536L47.0319 61.3745L47.214 61.2938L47.3948 61.2114L47.5749 61.1271L47.7539 61.0412L47.9315 60.9538L48.1087 60.8643L48.2843 60.7735L48.4592 60.6808L48.6325 60.5868L48.805 60.491L48.9765 60.3935L49.1465 60.2945L49.3156 60.1938L49.4834 60.0917L49.6499 59.9879L49.8155 59.8826L49.9794 59.776L50.1424 59.6675L50.3043 59.5575L50.4646 59.4462L50.6235 59.3336L50.7816 59.2191L50.9379 59.1036L51.0932 58.9864L51.2472 58.8677L51.3992 58.7479L51.5506 58.6264L51.7005 58.5035L51.8483 58.3796L51.9957 58.2537L52.141 58.1271L52.2849 57.9993L52.4279 57.8694L52.5687 57.739L52.7085 57.607L52.8468 57.4737L52.9833 57.3394L53.1186 57.2036L53.2524 57.0667L53.3846 56.9286L53.515 56.7893L53.6441 56.6489L53.7718 56.5073L53.8975 56.3648L54.0222 56.2208L54.1448 56.076L54.2658 55.9301L54.3856 55.7828L54.5034 55.6351L54.6197 55.4858L54.7345 55.3357L54.8476 55.1845L54.9589 55.0325L55.0684 54.8797L55.1766 54.7254L55.2829 54.5707L55.3875 54.4149L55.4907 54.258L55.5916 54.1008L55.6913 53.9423L55.7891 53.7829L55.8853 53.623L55.9795 53.4622L56.0724 53.3003L56.163 53.1383L56.2523 52.9748L56.3397 52.8111L56.4251 52.6467L56.5092 52.481L56.5909 52.3156L56.6714 52.1485L56.7496 51.9819L56.8267 51.8135L56.9012 51.6455L56.9745 51.476L57.0459 51.3067L57.1152 51.1367L57.1829 50.966L57.2488 50.7947L57.3126 50.6234L57.3751 50.4511L57.4352 50.2785L57.4938 50.1056L57.5505 49.9322L57.6054 49.7582L57.6586 49.5841L57.7097 49.4097L57.7591 49.2347L57.8064 49.0596L57.8522 48.884L57.8959 48.7082L57.9379 48.5324L57.9781 48.3558L58.0163 48.1793L58.0528 48.0026L58.0872 47.8259L58.12 47.6489L58.1508 47.4711L58.1798 47.2941L58.207 47.1165L58.2322 46.9387L58.2556 46.7613L58.2772 46.5836L58.297 46.4053L58.3149 46.2282L58.3311 46.0498L58.3453 45.872L58.3575 45.6946L58.3682 45.5167L58.3768 45.3391L58.3837 45.1617L58.3887 44.9837L58.3918 44.8069L58.3932 44.6293L58.3927 44.4523L58.3905 44.2752L58.3864 44.0989L58.3804 43.9222L58.3727 43.7459L58.3631 43.5703L58.3518 43.3942L58.3386 43.2186L58.3239 43.0439L58.3071 42.8686L58.2886 42.6945L58.2682 42.52L58.2462 42.3463L58.2225 42.1729L58.1969 41.9996L58.1695 41.8271L58.1405 41.6551L58.1097 41.4835L58.0771 41.3124L58.0427 41.1411L58.0067 40.9711L57.9691 40.8016L57.9296 40.6323L57.8884 40.4634L57.8457 40.2959L57.801 40.1279L57.7549 39.9613L57.707 39.7949L57.6575 39.6295L57.6063 39.4644L57.5534 39.2999L57.499 39.1366L57.443 38.9738L57.385 38.8111L57.3259 38.65L57.2649 38.4891L57.2024 38.3294L57.1383 38.17L57.0725 38.0113L57.0053 37.8541L56.9364 37.697L56.8661 37.5413L56.7943 37.3864L56.7208 37.2318L56.6457 37.0782L56.5695 36.926L56.4913 36.7742L56.4121 36.6238L56.3312 36.4743L56.2487 36.325L56.1652 36.1775L56.0798 36.0306L55.9932 35.8849L55.9049 35.7397L55.8158 35.5962L55.7246 35.453L55.6326 35.3114L55.539 35.1708L55.4441 35.0312L55.3475 34.8923L55.2499 34.7549L55.1512 34.6188L55.0507 34.4831L54.9493 34.3491L54.8463 34.2161L54.7426 34.0844L54.637 33.9535L54.5304 33.824L54.4225 33.6956L54.3136 33.5682L54.2035 33.4425L54.0919 33.3175L53.9795 33.1942L53.8656 33.0717L53.7511 32.951L53.6348 32.8309L53.5179 32.7126L53.3994 32.595L53.2801 32.4792L53.16 32.3646L53.0386 32.2512L52.916 32.139L52.7924 32.0284L52.668 31.919L52.5421 31.8106L52.4162 31.7044L52.2885 31.5987L52.1601 31.4947L52.0308 31.3923L51.9004 31.2907L51.7693 31.1909L51.6376 31.0927L51.5043 30.9955L51.3702 30.8995L51.236 30.8057L51.1 30.7126L50.9642 30.6216L50.8272 30.5316L50.6892 30.4429L50.5504 30.3558L50.4113 30.2704L50.2708 30.1861L50.1302 30.1036L49.9883 30.0222L49.8465 29.9428L49.7035 29.8646L49.5598 29.7877L49.4155 29.7125L49.2709 29.639L49.1254 29.5666L48.9792 29.4958L48.8327 29.4266L48.686 29.3591L48.5375 29.2926L48.3899 29.2282L48.2411 29.1651L48.0916 29.1034L47.942 29.0434L47.7921 28.985L47.6415 28.9281L47.4901 28.8725L47.339 28.8188L47.187 28.7664L47.0346 28.7156L46.8824 28.6664L46.7295 28.6189L46.5766 28.5728L46.4224 28.5281L46.2688 28.4852L46.1148 28.4438L45.9605 28.404L45.806 28.3657L45.6507 28.3289L45.4958 28.2938L45.3409 28.2603L45.1853 28.2282L45.0294 28.1976L44.8743 28.169L44.7182 28.1416L44.5624 28.1159L44.4059 28.0915L44.2503 28.069L44.0934 28.0478L43.9376 28.0285L43.7813 28.0105L43.6249 27.9941L43.4688 27.9793L43.3123 27.966L43.1565 27.9543L42.9998 27.9442L42.8438 27.9356L42.6882 27.9286L42.5315 27.923L42.3761 27.919L42.2205 27.9167L42.0651 27.9158L41.9588 27.9161L42.0393 34.7157L42.0874 34.7158L42.1767 34.7171L42.2663 34.7193L42.356 34.7221L42.4456 34.7263L42.5355 34.7311L42.6254 34.7369L42.7154 34.7437L42.8055 34.7515L42.8957 34.7601L42.9859 34.7697L43.0762 34.7801L43.1666 34.7917L43.2568 34.8041L43.3472 34.8174L43.4376 34.8318L43.528 34.8471L43.6183 34.8633L43.7087 34.8806L43.7989 34.8986L43.8891 34.9179L43.9794 34.9379L44.0696 34.959L44.1595 34.9809L44.2495 35.0038L44.3394 35.0278L44.4291 35.0526L44.5188 35.0784L44.6083 35.1052L44.6976 35.1329L44.7868 35.1618L44.8759 35.1915L44.9647 35.2221L45.0535 35.2536L45.1419 35.2862L45.2302 35.3197L45.3182 35.3541L45.4061 35.3896L45.4937 35.426L45.581 35.4633L45.6682 35.5016L45.755 35.5409L45.8416 35.581L45.9279 35.6223L46.0138 35.6642L46.0995 35.7073L46.1847 35.7514L46.2697 35.7963L46.3544 35.8422L46.4387 35.889L46.5226 35.9367L46.6061 35.9854L46.6892 36.0349L46.772 36.0855L46.8543 36.137L46.9363 36.1894L47.0177 36.2425L47.0987 36.2968L47.1794 36.352L47.2596 36.4081L47.3392 36.465L47.4184 36.5228L47.4971 36.5815L47.5753 36.6411L47.6529 36.7016L47.7302 36.763L47.8067 36.8254L47.8827 36.8884L47.9583 36.9525L48.0333 37.0173L48.1076 37.0831L48.1815 37.1497L48.2546 37.2173L48.3272 37.2855L48.3991 37.3547L48.4706 37.4247L48.5412 37.4955L48.6112 37.5672L48.6807 37.6396L48.7493 37.7129L48.8174 37.7871L48.8848 37.862L48.9516 37.9377L49.0175 38.0142L49.0827 38.0915L49.1474 38.1694L49.2111 38.2483L49.2742 38.3279L49.3365 38.4083L49.3981 38.4895L49.4589 38.5713L49.5189 38.6539L49.578 38.7371L49.6365 38.8212L49.6942 38.9061L49.7509 38.9916L49.8069 39.0777L49.8622 39.1647L49.9164 39.2522L49.9699 39.3405L50.0225 39.4294L50.0742 39.5189L50.1251 39.6092L50.175 39.7001L50.2242 39.7916L50.2725 39.8838L50.3196 39.9766L50.3661 40.0699L50.4115 40.1639L50.456 40.2586L50.4996 40.3537L50.5422 40.4495L50.584 40.5459L50.6247 40.6428L50.6645 40.7402L50.7033 40.8382L50.7411 40.9367L50.778 41.0357L50.8138 41.1353L50.8486 41.2355L50.8825 41.336L50.9152 41.437L50.9469 41.5386L50.9777 41.6405L51.0074 41.743L51.0361 41.846L51.0638 41.9492L51.0905 42.053L51.1159 42.1572L51.1404 42.2619L51.1638 42.3667L51.1861 42.4722L51.2074 42.578L51.2274 42.6838L51.2464 42.7905L51.2645 42.8973L51.2814 43.0042L51.2971 43.1118L51.3116 43.2195L51.3251 43.3275L51.3376 43.436L51.3489 43.5446L51.359 43.6533L51.368 43.7625L51.3759 43.872L51.3826 43.9815L51.3882 44.0913L51.3925 44.2014L51.3959 44.3116L51.3979 44.422L51.399 44.5326L51.3986 44.6432L51.3974 44.7541L51.3948 44.8652L51.3911 44.9764L51.3862 45.0877L51.3801 45.199L51.3729 45.3104L51.3644 45.4219L51.3547 45.5336L51.3439 45.6452L51.332 45.7569L51.3187 45.8686L51.3043 45.9804L51.2888 46.0923L51.272 46.2039L51.254 46.3156L51.2347 46.4272L51.2144 46.5389L51.1928 46.6506L51.1701 46.7621L51.1459 46.8735L51.1207 46.9848L51.0944 47.0961L51.0667 47.2073L51.0379 47.3184L51.008 47.4291L50.9767 47.5399L50.9442 47.6503L50.9106 47.7607L50.8758 47.8709L50.8398 47.9808L50.8025 48.0907L50.7641 48.2002L50.7243 48.3093L50.6835 48.4184L50.6415 48.527L50.5983 48.6356L50.5538 48.7437L50.5082 48.8516L50.4614 48.9591L50.4133 49.0664L50.3641 49.1732L50.3137 49.2797L50.262 49.3859L50.2094 49.4917L50.1554 49.597L50.1003 49.702L50.0439 49.8065L49.9865 49.9106L49.9279 50.0143L49.8681 50.1175L49.8071 50.2203L49.7451 50.3225L49.6817 50.4244L49.6174 50.5256L49.5519 50.6263L49.4851 50.7266L49.4173 50.8262L49.3484 50.9254L49.2783 51.024L49.207 51.1219L49.1348 51.2194L49.0613 51.3161L48.9867 51.4123L48.9111 51.5079L48.8344 51.6028L48.7566 51.697L48.6777 51.7906L48.5977 51.8836L48.5165 51.9758L48.4344 52.0673L48.3511 52.1582L48.2669 52.2483L48.1817 52.3376L48.0952 52.4264L48.0079 52.5143L47.9194 52.6013L47.8301 52.6877L47.7395 52.7733L47.648 52.8579L47.5556 52.9418L47.4622 53.0251L47.3678 53.1074L47.2723 53.1888L47.176 53.2693L47.0786 53.3491L46.9802 53.4279L46.881 53.5057L46.7808 53.5828L46.6798 53.659L46.5777 53.7343L46.4749 53.8085L46.3709 53.8818L46.2663 53.9544L46.1606 54.0257L46.0541 54.0963L45.9468 54.1656L45.8386 54.2343L45.7294 54.3018L45.6196 54.3682L45.5088 54.4336L45.3973 54.4981L45.2849 54.5615L45.1716 54.6238L45.0578 54.6852L44.9431 54.7454L44.8277 54.8046L44.7113 54.8626L44.5944 54.9197L44.4766 54.9755L44.3581 55.0303L44.2391 55.084L44.1191 55.1364L43.9986 55.1879L43.8774 55.2381L43.7555 55.2871L43.6329 55.335L43.5097 55.3819L43.3858 55.4274L43.2613 55.4719L43.1363 55.5151L43.0106 55.5571L42.8844 55.598L42.7576 55.6374L42.6302 55.6758L42.5022 55.7131L42.3738 55.7489L42.2448 55.7837L42.1153 55.817L41.9853 55.8492L41.8547 55.88L41.7238 55.9097L41.5923 55.938L41.4605 55.9652L41.3281 55.991L41.1954 56.0154L41.0623 56.0387L40.9287 56.0607L40.7948 56.0812L40.6605 56.1005L40.5259 56.1185L40.3909 56.1352L40.2556 56.1505L40.12 56.1644L39.984 56.1772L39.8479 56.1883L39.7113 56.1984L39.5745 56.2069L39.4376 56.2143L39.3004 56.2202L39.1629 56.2247L39.0252 56.2278L38.8874 56.2296L38.7494 56.2301L38.6113 56.2292L38.473 56.2269L38.3345 56.2231L38.196 56.2181L38.0573 56.2116L37.9184 56.2037L37.7796 56.1945L37.6407 56.1838L37.5019 56.1718L37.3628 56.1583L37.224 56.1435L37.0849 56.1271L36.9461 56.1095L36.807 56.0904L36.6682 56.07L36.5293 56.048L36.3907 56.0248L36.252 56.0001L36.1135 55.974L35.975 55.9467L35.8367 55.9177L35.6985 55.8874L35.5606 55.8555L35.4228 55.8224L35.285 55.788L35.1476 55.752L35.0105 55.7145L34.8735 55.6758L34.737 55.6356L34.6005 55.594L34.4643 55.551L34.3285 55.5067L34.1929 55.4609L34.0578 55.4137L33.9229 55.3651L33.7884 55.315L33.6544 55.2637L33.5206 55.2109L33.3873 55.1567L33.2544 55.1013L33.122 55.0443L32.99 54.986L32.8583 54.9264L32.7274 54.8653L32.5967 54.8028L32.4666 54.7391L32.3371 54.6739L32.2082 54.6074L32.0798 54.5395L31.9519 54.4704L31.8246 54.3998L31.6979 54.3279L31.5717 54.2546L31.4463 54.18L31.3215 54.1042L31.1974 54.027L31.0739 53.9484L30.9511 53.8686L30.829 53.7874L30.7076 53.7049L30.5871 53.6212L30.4671 53.5362L30.3479 53.4499L30.2296 53.3622L30.112 53.2734L29.9953 53.1834L29.8793 53.0919L29.7642 52.9993L29.6498 52.9055L29.5364 52.8104L29.4238 52.714L29.3122 52.6164L29.2014 52.5177L29.0915 52.4178L28.9826 52.3165L28.8745 52.2142L28.7675 52.1107L28.6613 52.006L28.5563 51.9001L28.4522 51.7932L28.349 51.6849L28.2469 51.5758L28.1458 51.4652L28.0459 51.3537L27.9468 51.2412L27.849 51.1273L27.7521 51.0126L27.6563 50.8966L27.5618 50.7796L27.4683 50.6616L27.3759 50.5425L27.2846 50.4224L27.1945 50.3012L27.1057 50.1791L27.018 50.0559L26.9314 49.9316L26.846 49.8065L26.7619 49.6804L26.6791 49.5533L26.5975 49.4252L26.517 49.2963L26.4379 49.1664L26.3599 49.0355L26.2834 48.9038L26.2081 48.7711L26.1341 48.6376L26.0613 48.5033L25.99 48.368L25.92 48.2319L25.8512 48.095L25.7838 47.9574L25.7179 47.8187L25.6532 47.6795L25.59 47.5394L25.5282 47.3985L25.4677 47.2568L25.4086 47.1145L25.351 46.9713L25.2948 46.8276L25.2401 46.683L25.1869 46.5378L25.1351 46.3919L25.0846 46.2455L25.0357 46.0984L24.9883 45.9505L24.9424 45.8021L24.8979 45.6532L24.8548 45.5035L24.8134 45.3533L24.7736 45.2026L24.7351 45.0513L24.6983 44.8994L24.663 44.7473L24.6292 44.5944L24.5969 44.4411L24.5663 44.2873L24.5371 44.1331L24.5096 43.9784L24.4837 43.8233L24.4593 43.6679L24.4365 43.512L24.4152 43.3558L24.3958 43.1991L24.3778 43.0423L24.3614 42.8848L24.3466 42.7273L24.3334 42.5693L24.3219 42.4112L24.312 42.2527L24.3037 42.094L24.2971 41.9352L24.292 41.776L24.2888 41.6166L24.2872 41.4572L24.287 41.2974L24.2886 41.1375L24.292 40.9776L24.2969 40.8175L24.3036 40.6572L24.3118 40.4969L24.3217 40.3366L24.3333 40.1761L24.3466 40.0157L24.3615 39.8552L24.3781 39.6947L24.3965 39.5342L24.4165 39.3738L24.4381 39.2135L24.4615 39.0532L24.4865 38.8929L24.5134 38.7328L24.5416 38.5727L24.5717 38.4128L24.6036 38.253L24.6371 38.0934L24.6722 37.9341L24.709 37.7748L24.7475 37.616L24.7877 37.4571L24.8296 37.2987L24.8732 37.1405L24.9184 36.9826L24.9652 36.8248L25.0139 36.6676L25.0641 36.5105L25.116 36.3538L25.1697 36.1977L25.2249 36.0417L25.2819 35.8863L25.3404 35.7312L25.4007 35.5767L25.4627 35.4225L25.5263 35.2687L25.5915 35.1157L25.6583 34.9629L25.7269 34.8107L25.7969 34.6591L25.8688 34.508L25.9421 34.3576L26.0172 34.2076L26.0938 34.0583L26.1721 33.9097L26.2519 33.7617L26.3335 33.6143L26.4165 33.4676L26.5011 33.3215L26.5874 33.1763L26.6753 33.0317L26.7646 32.8878L26.8558 32.7448L26.9483 32.6024L27.0423 32.4608L27.138 32.3201L27.2352 32.1802L27.3339 32.0412L27.4342 31.903L27.536 31.7656L27.6392 31.6291L27.744 31.4937L27.8503 31.3589L27.9582 31.2253L28.0675 31.0924L28.1781 30.9607L28.2903 30.8298L28.4039 30.6999L28.519 30.5712L28.6355 30.4433L28.7535 30.3167L28.8729 30.191L28.9937 30.0664L29.1158 29.9428L29.2394 29.8203L29.3644 29.6989L29.4906 29.5788L29.6183 29.4598L29.7473 29.3418L29.8775 29.2251L30.0091 29.1095L30.1422 28.9953L30.2764 28.882L30.412 28.7702L30.5487 28.6596L30.6869 28.5501L30.8261 28.442L30.9667 28.3352L31.1085 28.2297L31.2515 28.1254L31.3957 28.0226L31.5411 27.921L31.6877 27.8207L31.8355 27.7218L31.9843 27.6244L32.1343 27.5284L32.2856 27.4336L32.4378 27.3403L32.5912 27.2485L32.7456 27.1581L32.9012 27.0691L33.0577 26.9816L33.2153 26.8955L33.374 26.811L33.5335 26.728L33.6942 26.6464L33.8557 26.5665L34.0184 26.4879L34.1819 26.411L34.3463 26.3356L34.5117 26.2617L34.6779 26.1895L34.8452 26.1187L35.0132 26.0496L35.182 25.9822L35.3518 25.9163L35.5224 25.852L35.6937 25.7893L35.8658 25.7284L36.0389 25.669L36.2125 25.6114L36.387 25.5554L36.5621 25.501L36.7381 25.4484L36.9146 25.3974L37.0918 25.3483L37.2697 25.3007L37.4482 25.2548L37.6274 25.2107L37.8071 25.1683L37.9876 25.1278L38.1684 25.0889L38.35 25.0518L38.5319 25.0165L38.6232 24.9996ZM40.8599 38.0754L38.784 38.5714L38.6621 28.2886L38.5643 28.3106L38.417 28.3453L38.2698 28.3815L38.1238 28.419L37.9779 28.4579L37.8329 28.4982L37.6879 28.5402L37.5444 28.583L37.4005 28.6277L37.2584 28.6733L37.1159 28.7206L36.9744 28.7693L36.8335 28.8192L36.6932 28.8703L36.5542 28.9227L36.4153 28.9767L36.2772 29.0319L36.14 29.0882L36.0029 29.1462L35.8676 29.2049L35.7324 29.2654L35.5984 29.3269L35.4646 29.3899L35.332 29.4538L35.1998 29.5192L35.0691 29.5857L34.9389 29.6534L34.8096 29.7224L34.6811 29.7924L34.5534 29.8637L34.4267 29.9363L34.3013 30.0098L34.1758 30.0849L34.0519 30.1607L33.929 30.2378L33.8069 30.316L33.6855 30.3954L33.5654 30.4759L33.4462 30.5575L33.3279 30.64L33.2108 30.7235L33.0943 30.8084L32.979 30.8943L32.8648 30.9811L32.7515 31.069L32.6395 31.1576L32.5286 31.2475L32.4183 31.3384L32.3092 31.4304L32.2015 31.523L32.0947 31.6168L31.989 31.7114L31.8844 31.807L31.7808 31.9037L31.6785 32.0012L31.5773 32.0993L31.477 32.1987L31.3781 32.2987L31.2803 32.3997L31.1838 32.5013L31.0879 32.6043L30.9938 32.7075L30.9006 32.8118L30.8086 32.917L30.718 33.0225L30.6283 33.1293L30.5403 33.2363L30.4529 33.3447L30.3672 33.4533L30.2824 33.563L30.199 33.6734L30.1168 33.7842L30.0358 33.8957L29.9562 34.0079L29.8777 34.121L29.8004 34.2344L29.7246 34.3488L29.65 34.4633L29.5767 34.5786L29.5045 34.6948L29.4339 34.8111L29.3642 34.9285L29.2961 35.0458L29.2291 35.1641L29.1634 35.2828L29.0993 35.4018L29.0362 35.5214L28.9746 35.6416L28.9141 35.7624L28.8552 35.8831L28.7974 36.0048L28.7411 36.1266L28.6861 36.2489L28.6323 36.3715L28.5799 36.4947L28.5289 36.6179L28.4792 36.7418L28.4309 36.8659L28.3837 36.9903L28.3382 37.1148L28.2939 37.2399L28.2508 37.3653L28.2092 37.4908L28.1689 37.6165L28.13 37.7428L28.0923 37.869L28.0563 37.9953L28.0214 38.1221L27.9877 38.2491L27.9556 38.376L27.9248 38.5032L27.8953 38.6305L27.8672 38.758L27.8405 38.8857L27.8152 39.0132L27.791 39.1409L27.7683 39.269L27.7471 39.3967L27.7271 39.5245L27.7084 39.6528L27.6911 39.7804L27.6752 39.9087L27.6606 40.0364L27.6473 40.1644L27.6354 40.2927L27.6248 40.4203L27.6156 40.5482L27.6077 40.6761L27.601 40.8036L27.5958 40.9311L27.5918 41.0584L27.5893 41.186L27.5879 41.3131L27.588 41.4401L27.5893 41.5669L27.592 41.6937L27.596 41.8201L27.6012 41.9463L27.6077 42.0724L27.6156 42.1981L27.6248 42.3237L27.6352 42.449L27.6469 42.574L27.6599 42.699L27.6741 42.8231L27.6896 42.9475L27.7064 43.0711L27.7246 43.1948L27.7438 43.3178L27.7644 43.4406L27.7862 43.5633L27.8092 43.6852L27.8335 43.807L27.8589 43.928L27.8858 44.049L27.9137 44.1693L27.9428 44.2894L27.9731 44.4087L28.0048 44.5281L28.0374 44.6464L28.0713 44.7647L28.1064 44.8822L28.1426 44.9994L28.18 45.1159L28.2186 45.2317L28.2584 45.3475L28.2993 45.4624L28.3412 45.5766L28.3843 45.6906L28.4286 45.8039L28.474 45.9165L28.5204 46.0285L28.5678 46.1398L28.6166 46.2507L28.6663 46.361L28.7171 46.4705L28.769 46.5793L28.8217 46.6873L28.8759 46.7952L28.9307 46.9018L28.9867 47.0079L29.0438 47.1134L29.102 47.2181L29.161 47.3222L29.221 47.4255L29.2821 47.5278L29.3442 47.6298L29.4071 47.7308L29.471 47.831L29.536 47.9305L29.6018 48.0292L29.6686 48.1274L29.7361 48.2241L29.8047 48.3206L29.8742 48.4161L29.9445 48.5106L30.016 48.6047L30.088 48.6976L30.161 48.7896L30.2348 48.8809L30.3096 48.9715L30.3848 49.0609L30.4614 49.1496L30.5385 49.2375L30.6163 49.3243L30.6953 49.4104L30.7746 49.4953L30.8549 49.5797L30.9359 49.6629L31.0175 49.7452L31.1002 49.8266L31.1834 49.9072L31.2673 49.9868L31.352 50.0653L31.4373 50.1429L31.5234 50.2196L31.6101 50.2953L31.6974 50.37L31.7853 50.4439L31.8739 50.5166L31.9632 50.5885L32.0533 50.6593L32.1435 50.729L32.2346 50.7978L32.3263 50.8656L32.4185 50.9325L32.5113 50.9982L32.6046 51.063L32.6984 51.1268L32.7928 51.1895L32.8875 51.2511L32.9828 51.3118L33.079 51.3716L33.1751 51.4299L33.2719 51.4875L33.3693 51.5441L33.4667 51.5994L33.5647 51.6538L33.6636 51.7073L33.7624 51.7595L33.8617 51.8106L33.9613 51.8607L34.0616 51.9099L34.1617 51.9578L34.2628 52.0048L34.3638 52.0507L34.465 52.0954L34.567 52.1391L34.6691 52.1818L34.7712 52.2234L34.8738 52.2639L34.9767 52.3032L35.0801 52.3416L35.1831 52.3789L35.287 52.4151L35.3906 52.45L35.4945 52.484L35.5988 52.517L35.7032 52.5489L35.8077 52.5795L35.9123 52.6092L36.0173 52.6377L36.1223 52.6652L36.2273 52.6915L36.3325 52.7169L36.4377 52.741L36.543 52.7641L36.6486 52.7862L36.7541 52.8071L36.8596 52.8271L36.9652 52.8459L37.0709 52.8637L37.1766 52.8803L37.2823 52.8959L37.3877 52.9103L37.4934 52.9237L37.5989 52.9361L37.7047 52.9474L37.8102 52.9575L37.9157 52.9667L38.0211 52.9748L38.1263 52.9818L38.2316 52.9878L38.3366 52.9926L38.4415 52.9966L38.5466 52.9993L38.6511 53.0011L38.7556 53.0018L38.86 53.0015L38.9641 53.0002L39.0684 52.9977L39.1723 52.9943L39.2757 52.9899L39.3791 52.9844L39.4826 52.9779L39.5853 52.9703L39.6881 52.9618L39.7904 52.9523L39.8927 52.9418L39.9947 52.9301L40.096 52.9177L40.1976 52.9042L40.2985 52.8896L40.399 52.8741L40.4997 52.8577L40.5996 52.8403L40.6992 52.8219L40.7986 52.8025L40.8977 52.7821L40.996 52.7608L41.094 52.7387L41.192 52.7155L41.2894 52.6913L41.3863 52.6665L41.4828 52.6405L41.5788 52.6137L41.6748 52.5858L41.7699 52.5572L41.8643 52.5276L41.959 52.497L42.0527 52.4657L42.146 52.4336L42.2387 52.4005L42.3309 52.3664L42.4229 52.3315L42.5143 52.2958L42.6048 52.2593L42.6951 52.222L42.7848 52.1836L42.8741 52.1445L42.9624 52.1047L43.0506 52.064L43.1379 52.0226L43.2246 51.9803L43.311 51.9372L43.3964 51.8935L43.4816 51.8488L43.566 51.8033L43.6498 51.7571L43.7328 51.7103L43.8155 51.6626L43.8974 51.6141L43.9785 51.565L44.059 51.5151L44.1389 51.4645L44.2182 51.4133L44.2969 51.3613L44.3747 51.3087L44.452 51.2552L44.5285 51.2012L44.6041 51.1466L44.6792 51.0911L44.7536 51.0351L44.8273 50.9784L44.9002 50.9211L44.9726 50.8631L45.044 50.8048L45.1147 50.7457L45.1846 50.6859L45.2538 50.6256L45.3224 50.5647L45.3901 50.5031L45.4571 50.4412L45.523 50.3787L45.5886 50.3154L45.6532 50.2517L45.7172 50.1876L45.7802 50.1229L45.8423 50.0575L45.9038 49.992L45.9646 49.9255L46.0242 49.8591L46.0835 49.7917L46.1417 49.724L46.1989 49.6561L46.2559 49.5873L46.3113 49.5185L46.3664 49.449L46.4206 49.3793L46.4738 49.309L46.5264 49.2383L46.5779 49.1675L46.6287 49.0958L46.6787 49.0239L46.7277 48.9521L46.776 48.8793L46.8235 48.8066L46.8698 48.7334L46.9156 48.66L46.9604 48.5861L47.0044 48.5119L47.0476 48.4375L47.0897 48.3628L47.1311 48.2879L47.1717 48.2124L47.2113 48.1371L47.25 48.0613L47.288 47.9853L47.3251 47.9091L47.3613 47.8324L47.3966 47.7558L47.431 47.6789L47.4645 47.602L47.4973 47.5246L47.529 47.4473L47.5601 47.3694L47.59 47.2921L47.6194 47.2136L47.6475 47.1363L47.675 47.0578L47.7017 46.9793L47.7273 46.9011L47.7521 46.8226L47.7761 46.7442L47.7993 46.665L47.8213 46.5868L47.8429 46.5074L47.8633 46.4292L47.8829 46.35L47.9016 46.2707L47.9194 46.192L47.9364 46.1135L47.9526 46.0339L47.9679 45.9552L47.9823 45.8758L47.9958 45.7973L48.0086 45.7184L48.0205 45.6393L48.0315 45.5602L48.0416 45.4814L48.0509 45.4028L48.0594 45.3245L48.0669 45.2454L48.0738 45.1671L48.0797 45.0886L48.0848 45.0102L48.0891 44.932L48.0925 44.8541L48.095 44.7764L48.0968 44.6983L48.0979 44.6203L48.0981 44.543L48.0974 44.4658L48.0959 44.3887L48.0936 44.3118L48.0905 44.2345L48.0866 44.1587L48.0819 44.0813L48.0765 44.0058L48.0702 43.93L48.0632 43.8536L48.0552 43.7781L48.0468 43.7034L48.0372 43.6276L48.0271 43.5534L48.0162 43.4786L48.0046 43.405L47.992 43.3306L47.9789 43.2568L47.965 43.1836L47.9504 43.1107L47.9349 43.0376L47.9187 42.9654L47.902 42.8931L47.8843 42.8214L47.8661 42.7503L47.8469 42.6786L47.8274 42.6084L47.8069 42.5374L47.7858 42.4677L47.764 42.398L47.7415 42.3289L47.7183 42.2599L47.6943 42.1911L47.67 42.1234L47.6448 42.0558L47.6189 41.9881L47.5924 41.9215L47.5652 41.8545L47.5376 41.7891L47.509 41.723L47.4802 41.658L47.4505 41.5935L47.4202 41.529L47.3894 41.4653L47.3579 41.4019L47.3258 41.3389L47.2932 41.2765L47.2599 41.2146L47.2262 41.1532L47.1918 41.0921L47.1567 41.0316L47.1214 40.9716L47.0854 40.9122L47.0487 40.8529L47.0116 40.7948L46.9739 40.7368L46.9357 40.6793L46.897 40.6222L46.8579 40.566L46.8181 40.51L46.778 40.4547L46.7373 40.4L46.696 40.3458L46.6546 40.2921L46.6123 40.2388L46.5698 40.1864L46.5267 40.1343L46.4833 40.0828L46.4394 40.0319L46.3953 39.9816L46.3504 39.9319L46.3052 39.8827L46.2596 39.8339L46.2137 39.786L46.1672 39.7387L46.1204 39.6917L46.0734 39.6455L46.0259 39.6L45.9781 39.555L45.9295 39.5103L45.8812 39.4665L45.8323 39.4231L45.7831 39.3806L45.7334 39.3385L45.6835 39.2972L45.6332 39.2564L45.5828 39.2162L45.532 39.1766L45.4809 39.1375L45.4296 39.0993L45.3779 39.0615L45.3258 39.0244L45.2738 38.988L45.2214 38.952L45.1688 38.9169L45.1158 38.8823L45.0625 38.8482L45.0094 38.8149L44.9555 38.7821L44.9019 38.7501L44.848 38.7188L44.7938 38.688L44.7392 38.6577L44.6848 38.6282L44.6303 38.5992L44.5753 38.5709L44.5206 38.5433L44.4651 38.5161L44.41 38.4898L44.3545 38.4643L44.2991 38.4391L44.2434 38.4146L44.1874 38.3906L44.1319 38.3676L44.0757 38.345L44.0195 38.3231L43.9635 38.3018L43.9073 38.2811L43.8511 38.2611L43.7948 38.2417L43.7384 38.2228L43.6822 38.2047L43.6257 38.1871L43.5691 38.1702L43.5129 38.154L43.456 38.1383L43.3998 38.1233L43.3433 38.1089L43.2867 38.0951L43.2302 38.0819L43.1738 38.0693L43.1172 38.0574L43.0609 38.0461L43.0047 38.0353L42.9485 38.0252L42.8919 38.0156L42.8361 38.0068L42.7795 37.9985L42.7239 37.9908L42.6677 37.9836L42.6119 37.9771L42.5564 37.9712L42.5006 37.9659L42.4451 37.9611L42.3896 37.9569L42.3343 37.9533L42.279 37.9503L42.2239 37.9479L42.1694 37.9461L42.1144 37.9447L42.0599 37.944L42.0053 37.9438L41.9511 37.9443L41.8969 37.9452L41.843 37.9467L41.7892 37.9488L41.7359 37.9513L41.6822 37.9546L41.6292 37.9582L41.5763 37.9623L41.5235 37.9672L41.4711 37.9724L41.4185 37.9782L41.3667 37.9845L41.3148 37.9913L41.2633 37.9987L41.2118 38.0066L41.1608 38.0149L41.1098 38.0237L41.0596 38.0331L41.009 38.043L40.9591 38.0533L40.9092 38.0641L40.8599 38.0754Z" fill="black"/>
</svg>
