<svg width="266" height="83" viewBox="0 0 266 83" fill="none" xmlns="http://www.w3.org/2000/svg">
<path fill-rule="evenodd" clip-rule="evenodd" d="M131.244 13.3409C133.744 10.8416 137.796 10.8416 140.296 13.3409C142.795 15.8403 142.795 19.8926 140.296 22.3921L125.057 37.6302C120.682 31.7669 121.158 23.4278 126.483 18.1023L131.244 13.3409Z" fill="#F1CB6A"/>
<path fill-rule="evenodd" clip-rule="evenodd" d="M153.028 47.7207C155.528 50.22 155.528 54.2724 153.028 56.7717C150.53 59.2711 146.477 59.2711 143.978 56.7717L128.74 41.5337C134.603 37.1587 142.942 37.6338 148.268 42.9594L153.028 47.7207Z" fill="#F1CB6A"/>
<path fill-rule="evenodd" clip-rule="evenodd" d="M118.649 69.5052C116.15 72.0047 112.097 72.0047 109.598 69.5052C107.099 67.0058 107.099 62.9535 109.598 60.4541L124.836 45.2161C129.211 51.0795 128.736 59.4185 123.41 64.7439L118.649 69.5052Z" fill="#F1CB6A"/>
<path fill-rule="evenodd" clip-rule="evenodd" d="M96.8648 35.1254C94.3654 32.626 94.3654 28.5737 96.8648 26.0743C99.3643 23.5748 103.417 23.5748 105.916 26.0743L121.154 41.3124C115.291 45.6874 106.952 45.2122 101.626 39.8868L96.8648 35.1254Z" fill="#F1CB6A"/>
<path fill-rule="evenodd" clip-rule="evenodd" d="M127.839 67.639C131.525 63.5414 133.238 58.2981 132.978 53.1357L140.296 60.4539C140.314 60.4721 140.333 60.4903 140.351 60.5085V65.7332C140.351 69.2678 137.485 72.1333 133.951 72.1333C131.08 72.1333 128.65 70.2429 127.839 67.639Z" fill="#F1CB6A"/>
<path fill-rule="evenodd" clip-rule="evenodd" d="M98.7308 44.3152C102.828 48.0008 108.072 49.7137 113.234 49.4538L105.916 56.772C105.898 56.7902 105.879 56.8086 105.861 56.8268H100.637C97.102 56.827 94.2366 53.9614 94.2366 50.4267C94.2366 47.5559 96.1269 45.1264 98.7308 44.3152Z" fill="#F1CB6A"/>
<path fill-rule="evenodd" clip-rule="evenodd" d="M151.162 38.5311C147.065 34.8455 141.822 33.1325 136.66 33.3923L143.978 26.0742C143.996 26.056 144.014 26.0377 144.032 26.0193H149.257C152.792 26.0193 155.658 28.8849 155.658 32.4195C155.658 35.2905 153.767 37.7199 151.162 38.5311Z" fill="#F1CB6A"/>
<path fill-rule="evenodd" clip-rule="evenodd" d="M122.055 15.2071C118.369 19.3046 116.656 24.5479 116.916 29.7105L109.598 22.3923C109.58 22.3741 109.561 22.3559 109.543 22.3377V17.1129C109.543 13.5783 112.408 10.7127 115.943 10.7127C118.814 10.7127 121.243 12.6032 122.055 15.2071Z" fill="#F1CB6A"/>
<path fill-rule="evenodd" clip-rule="evenodd" d="M115.943 5.50574C109.533 5.50574 104.336 10.7025 104.336 17.1131V19.3706C100.479 18.3629 96.2053 19.3701 93.183 22.3923C88.65 26.9253 88.65 34.2747 93.183 38.8076L94.7792 40.4038C91.3397 42.4184 89.0297 46.1528 89.0297 50.4268C89.0297 56.8373 94.2265 62.0341 100.637 62.0341H102.894C101.887 65.8908 102.894 70.1649 105.916 73.187C110.449 77.72 117.798 77.72 122.331 73.187L127.093 68.4259C131.293 64.2258 133.254 58.6347 132.978 53.1355L140.296 60.4537C144.829 64.9867 152.178 64.9867 156.712 60.4537C161.245 55.9208 161.245 48.5714 156.712 44.0386L155.116 42.4426C158.554 40.428 160.865 36.6936 160.865 32.4196C160.865 26.0091 155.667 20.8123 149.257 20.8123H147C148.007 16.9555 147 12.6813 143.978 9.65904C139.445 5.12609 132.096 5.12609 127.563 9.65904L122.801 14.4204C118.601 18.6205 116.64 24.2113 116.916 29.7105L109.598 22.3923C109.58 22.3741 109.562 22.3559 109.543 22.3378V17.1131C109.543 13.5784 112.409 10.713 115.943 10.713C118.814 10.713 121.244 12.6033 122.055 15.2072C122.295 14.94 122.544 14.6775 122.801 14.4204L125.966 11.2553C123.952 7.81571 120.217 5.50574 115.943 5.50574ZM144.032 26.0196C144.014 26.0377 143.996 26.0561 143.978 26.0743L136.66 33.3923C141.822 33.1326 147.066 34.8454 151.163 38.5312C153.767 37.72 155.658 35.2904 155.658 32.4196C155.658 28.885 152.793 26.0196 149.257 26.0196H144.032ZM105.861 56.8269C105.88 56.8085 105.898 56.7901 105.916 56.7719L113.234 49.4537C108.072 49.7136 102.829 48.0007 98.7312 44.3153C96.1273 45.1264 94.2368 47.5558 94.2368 50.4268C94.2368 53.9615 97.1023 56.8269 100.637 56.8269H105.861ZM133.951 77.3407C129.677 77.3407 125.942 75.0306 123.928 71.591L127.093 68.4259C127.35 68.1687 127.599 67.9063 127.839 67.639C128.65 70.2429 131.08 72.1335 133.951 72.1335C137.485 72.1335 140.351 69.268 140.351 65.7334V60.5087C141.851 61.9889 143.654 62.978 145.558 63.4756V65.7334C145.558 72.1439 140.361 77.3407 133.951 77.3407ZM140.296 13.341C137.796 10.8418 133.744 10.8418 131.245 13.341L126.483 18.1023C121.158 23.4279 120.683 31.7669 125.058 37.6303L140.296 22.3921C142.795 19.8927 142.795 15.8405 140.296 13.341ZM153.028 56.7718C155.528 54.2723 155.528 50.2201 153.028 47.7206L148.268 42.9593C142.942 37.6339 134.603 37.1586 128.74 41.5336L143.978 56.7718C146.477 59.2712 150.53 59.2712 153.028 56.7718ZM118.649 69.5051C116.15 72.0045 112.098 72.0045 109.598 69.5051C107.099 67.0056 107.099 62.9534 109.598 60.4539L124.836 45.2158C129.211 51.0791 128.736 59.4183 123.411 64.7437L118.649 69.5051ZM96.865 26.0743C94.3657 28.5737 94.3657 32.626 96.865 35.1254L101.626 39.8868C106.952 45.2122 115.291 45.6875 121.154 41.3124L105.916 26.0743C103.417 23.575 99.3644 23.575 96.865 26.0743Z" fill="black"/>
<path d="M3.11557 28.9778H8.80783V46.6658H18.5844V51.4576H3.11557V28.9778Z" fill="black"/>
<path d="M28.9196 51.9402C27.0115 51.9402 25.3391 51.5971 23.9026 50.9111C22.4661 50.2035 21.3513 49.2387 20.5579 48.0167C19.7862 46.7731 19.4002 45.3474 19.4002 43.7393C19.4002 42.1313 19.7862 40.7163 20.5579 39.4943C21.3513 38.2507 22.4661 37.2859 23.9026 36.5999C25.3391 35.8923 27.0115 35.5386 28.9196 35.5386C30.8278 35.5386 32.5 35.8923 33.9365 36.5999C35.373 37.2859 36.4772 38.2507 37.2489 39.4943C38.0423 40.7163 38.4389 42.1313 38.4389 43.7393C38.4389 45.3474 38.0423 46.7731 37.2489 48.0167C36.4772 49.2387 35.373 50.2035 33.9365 50.9111C32.5 51.5971 30.8278 51.9402 28.9196 51.9402ZM28.9196 47.5342C30.0559 47.5342 30.9564 47.2019 31.621 46.5373C32.3072 45.8511 32.6501 44.9186 32.6501 43.7393C32.6501 42.5602 32.3072 41.6382 31.621 40.9737C30.9564 40.2875 30.0559 39.9446 28.9196 39.9446C27.7832 39.9446 26.8721 40.2875 26.1861 40.9737C25.5213 41.6382 25.189 42.5602 25.189 43.7393C25.189 44.9186 25.5213 45.8511 26.1861 46.5373C26.8721 47.2019 27.7832 47.5342 28.9196 47.5342Z" fill="black"/>
<path d="M49.0709 58.8546C48.0418 58.8546 47.0019 58.7581 45.9514 58.5652C44.9223 58.3721 44.0324 58.1149 43.2821 57.7933V53.8698C44.9758 54.5986 46.9054 54.9632 49.0709 54.9632C50.636 54.9632 51.7616 54.6415 52.4476 53.9984C53.1552 53.3552 53.509 52.4119 53.509 51.1683V50.2357C52.8872 50.7717 52.1153 51.1897 51.1934 51.4899C50.2929 51.7901 49.3281 51.9402 48.299 51.9402C46.6696 51.9402 45.2331 51.5971 43.9896 50.9111C42.7461 50.2249 41.7705 49.2601 41.0631 48.0167C40.3769 46.7731 40.034 45.3474 40.034 43.7393C40.034 42.1099 40.3769 40.6734 41.0631 39.43C41.7491 38.1864 42.7139 37.2322 43.9575 36.5677C45.2009 35.8817 46.6268 35.5386 48.2347 35.5386C50.4431 35.5386 52.2654 36.214 53.7018 37.5647V36.0209H59.1692V50.3965C59.1692 53.0764 58.3436 55.1562 56.6928 56.6356C55.0634 58.1149 52.5227 58.8546 49.0709 58.8546ZM49.7141 47.5664C50.5931 47.5664 51.3757 47.3413 52.0617 46.891C52.7479 46.4408 53.2302 45.8405 53.509 45.09V42.3887C53.2087 41.6382 52.7156 41.0486 52.0296 40.6198C51.3434 40.1697 50.5717 39.9446 49.7141 39.9446C48.5564 39.9446 47.6236 40.2875 46.9162 40.9737C46.2086 41.6382 45.8549 42.5494 45.8549 43.7072C45.8549 44.8863 46.2086 45.8297 46.9162 46.5373C47.6236 47.2233 48.5564 47.5664 49.7141 47.5664Z" fill="black"/>
<path d="M70.1243 51.9402C68.2162 51.9402 66.5439 51.5971 65.1075 50.9111C63.671 50.2035 62.556 49.2387 61.7628 48.0167C60.9909 46.7731 60.6049 45.3474 60.6049 43.7393C60.6049 42.1313 60.9909 40.7163 61.7628 39.4943C62.556 38.2507 63.671 37.2859 65.1075 36.5999C66.5439 35.8923 68.2162 35.5386 70.1243 35.5386C72.0325 35.5386 73.7047 35.8923 75.1412 36.5999C76.5777 37.2859 77.6819 38.2507 78.4538 39.4943C79.247 40.7163 79.6437 42.1313 79.6437 43.7393C79.6437 45.3474 79.247 46.7731 78.4538 48.0167C77.6819 49.2387 76.5777 50.2035 75.1412 50.9111C73.7047 51.5971 72.0325 51.9402 70.1243 51.9402ZM70.1243 47.5342C71.2606 47.5342 72.1611 47.2019 72.8258 46.5373C73.5119 45.8511 73.8549 44.9186 73.8549 43.7393C73.8549 42.5602 73.5119 41.6382 72.8258 40.9737C72.1611 40.2875 71.2606 39.9446 70.1243 39.9446C68.9881 39.9446 68.0768 40.2875 67.3908 40.9737C66.726 41.6382 66.3937 42.5602 66.3937 43.7393C66.3937 44.9186 66.726 45.8511 67.3908 46.5373C68.0768 47.2019 68.9881 47.5342 70.1243 47.5342Z" fill="black"/>
<path d="M170.428 28.9778H176.121V51.4576H170.428V28.9778Z" fill="black"/>
<path d="M179.003 36.0209H184.47V37.5647C185.906 36.214 187.728 35.5386 189.936 35.5386C191.545 35.5386 192.971 35.8817 194.214 36.5677C195.458 37.2322 196.422 38.1864 197.108 39.43C197.794 40.652 198.138 42.0779 198.138 43.7072C198.138 45.3152 197.794 46.7516 197.108 48.0167C196.422 49.2601 195.458 50.2249 194.214 50.9111C192.993 51.5971 191.566 51.9402 189.936 51.9402C188.908 51.9402 187.921 51.7793 186.979 51.4577C186.057 51.1576 185.284 50.7394 184.663 50.2035V58.5007H179.003V36.0209ZM188.458 47.5342C189.616 47.5342 190.549 47.1913 191.255 46.5051C191.963 45.8191 192.317 44.8863 192.317 43.7072C192.317 42.5279 191.963 41.6062 191.255 40.9414C190.549 40.2554 189.616 39.9123 188.458 39.9123C187.601 39.9123 186.828 40.1374 186.142 40.5877C185.455 41.0165 184.964 41.6062 184.663 42.3565V45.09C184.964 45.8405 185.455 46.4408 186.142 46.891C186.828 47.3199 187.601 47.5342 188.458 47.5342Z" fill="black"/>
<path d="M206.576 51.9402C205.333 51.9402 204.036 51.8116 202.686 51.5542C201.335 51.3185 200.262 50.9754 199.469 50.5251V46.3765C200.348 46.891 201.398 47.3199 202.621 47.663C203.864 47.9844 205 48.1453 206.03 48.1453C206.779 48.1453 207.327 48.0916 207.669 47.9844C208.013 47.8773 208.184 47.663 208.184 47.3413C208.184 47.0839 208.067 46.8802 207.831 46.7302C207.617 46.5588 207.208 46.3871 206.608 46.2157C206.03 46.0228 205.355 45.8191 204.582 45.6046C203.275 45.2186 202.246 44.822 201.495 44.4147C200.744 44.0073 200.188 43.4927 199.822 42.871C199.458 42.2493 199.276 41.4668 199.276 40.5234C199.276 38.851 199.93 37.6076 201.238 36.7928C202.567 35.9566 204.379 35.5386 206.673 35.5386C207.788 35.5386 208.957 35.6565 210.178 35.8923C211.422 36.1282 212.354 36.4391 212.977 36.825V40.9094C212.334 40.4805 211.475 40.1266 210.403 39.848C209.353 39.5692 208.366 39.43 207.444 39.43C206.716 39.43 206.147 39.5049 205.74 39.655C205.333 39.7837 205.13 40.0195 205.13 40.3626C205.13 40.6842 205.333 40.9308 205.74 41.1022C206.147 41.2737 206.877 41.4882 207.927 41.7454C208.613 41.917 208.903 41.9919 208.795 41.9705C210.167 42.335 211.228 42.7424 211.979 43.1927C212.73 43.6429 213.254 44.1789 213.555 44.8006C213.877 45.4009 214.037 46.1728 214.037 47.1162C214.037 48.5955 213.395 49.7746 212.109 50.6537C210.842 51.5114 208.998 51.9402 206.576 51.9402Z" fill="black"/>
<path d="M222.488 51.9402C220.366 51.9402 218.769 51.3506 217.697 50.1715C216.647 48.9922 216.121 47.4379 216.121 45.5083V36.0209H221.782V44.865C221.782 46.6445 222.585 47.5342 224.193 47.5342C224.923 47.5342 225.587 47.3628 226.187 47.0197C226.787 46.6766 227.28 46.1729 227.666 45.5083V36.0209H233.326V51.4577H227.86V49.7855C227.196 50.4929 226.391 51.0289 225.447 51.3934C224.505 51.758 223.518 51.9402 222.488 51.9402Z" fill="black"/>
<path d="M236.224 36.0209H241.467V37.6933C242.11 37.0073 242.85 36.4819 243.686 36.1174C244.521 35.7315 245.411 35.5386 246.355 35.5386C247.513 35.5386 248.435 35.71 249.121 36.0531C249.829 36.3962 250.396 36.9108 250.825 37.5968C251.468 36.9536 252.251 36.4497 253.173 36.0854C254.095 35.7208 255.028 35.5386 255.97 35.5386C258.007 35.5386 259.455 36.0639 260.313 37.1145C261.17 38.1436 261.598 39.6335 261.598 41.5846V51.4577H256.195V42.3887C256.195 41.5311 256.035 40.9094 255.713 40.5234C255.392 40.1374 254.855 39.9446 254.106 39.9446C253.141 39.9446 252.357 40.2875 251.758 40.9737C251.779 41.338 251.79 41.8956 251.79 42.6459V51.4577H246.387V42.1636C246.387 41.3702 246.248 40.802 245.969 40.4591C245.69 40.116 245.197 39.9446 244.491 39.9446C243.396 39.9446 242.454 40.5555 241.66 41.7776V51.4577H236.224V36.0209Z" fill="black"/>
</svg>
