<svg width="141" height="55" viewBox="0 0 141 55" fill="none" xmlns="http://www.w3.org/2000/svg">
<g clip-path="url(#clip0_6_361)">
<path d="M33.4484 0.408081C27.9623 0.408081 22.7011 2.58739 18.8219 6.4666L6.16179 19.1267C2.28258 23.0059 0.103271 28.2671 0.103271 33.7532C0.103271 45.1773 9.3643 54.4383 20.7884 54.4383C26.2744 54.4383 31.5357 52.2589 35.4149 48.3797L44.1719 39.6227C44.1719 39.6225 44.1721 39.6229 44.1719 39.6227L69.687 14.1076C71.5397 12.2549 74.0525 11.2141 76.6726 11.2141C81.0591 11.2141 84.778 14.0731 86.0673 18.0293L94.1198 9.97676C90.4463 4.22323 84.005 0.408081 76.6726 0.408081C71.1865 0.408081 65.9252 2.58739 62.046 6.4666L27.774 40.7388C25.9213 42.5915 23.4085 43.6323 20.7884 43.6323C15.3323 43.6323 10.9093 39.2093 10.9093 33.7532C10.9093 31.1331 11.9501 28.6203 13.8028 26.7676L26.4628 14.1076C28.3155 12.2549 30.8283 11.2141 33.4484 11.2141C37.8351 11.2141 41.5538 14.0732 42.8432 18.0295L50.8958 9.97696C47.2223 4.22334 40.781 0.408081 33.4484 0.408081Z" fill="black"/>
<path d="M70.9982 40.7388C69.1455 42.5915 66.6327 43.6323 64.0126 43.6323C59.6266 43.6323 55.9081 40.7741 54.6184 36.8185L46.5661 44.8708C50.2398 50.6236 56.6807 54.4383 64.0126 54.4383C69.4986 54.4383 74.7599 52.2589 78.6391 48.3797L112.911 14.1076C114.764 12.2549 117.277 11.2141 119.897 11.2141C125.353 11.2141 129.776 15.6371 129.776 21.0932C129.776 23.7133 128.735 26.2261 126.882 28.0788L114.222 40.7388C112.37 42.5915 109.857 43.6323 107.237 43.6323C102.85 43.6323 99.1317 40.7735 97.8422 36.8176L89.7899 44.8701C93.4634 50.6234 99.9045 54.4383 107.237 54.4383C112.723 54.4383 117.984 52.2589 121.863 48.3797L134.523 35.7197C138.402 31.8405 140.582 26.5792 140.582 21.0932C140.582 9.66911 131.321 0.408081 119.897 0.408081C114.411 0.408081 109.149 2.58739 105.27 6.4666L70.9982 40.7388Z" fill="black"/>
</g>
<defs>
<clipPath id="clip0_6_361">
<rect width="140.479" height="54.0302" fill="white" transform="translate(0.103271 0.408081)"/>
</clipPath>
</defs>
</svg>
