<svg width="468" height="81" viewBox="0 0 468 81" fill="none" xmlns="http://www.w3.org/2000/svg">
<path fill-rule="evenodd" clip-rule="evenodd" d="M56.7338 0.411133H79.8788V20.3991H56.7338C53.2268 20.3991 50.0708 23.2041 50.0708 27.0621V80.0141H30.0818V27.0621C30.0818 23.5551 32.8868 20.3991 36.7448 20.3991H38.4978H43.4068C46.9138 20.3991 50.0698 17.5941 50.0698 13.7361V7.07314C50.0708 3.21614 52.8758 0.411133 56.7338 0.411133Z" fill="black"/>
<path fill-rule="evenodd" clip-rule="evenodd" d="M30.0819 20.3991H0.274902V0.411133H30.0819V20.3991Z" fill="black"/>
<path fill-rule="evenodd" clip-rule="evenodd" d="M189.289 53.3631V0.411133H169.3V60.0261H182.626C186.133 60.0261 189.289 57.2201 189.289 53.3631Z" fill="black"/>
<path fill-rule="evenodd" clip-rule="evenodd" d="M116.348 80.0141H129.674V60.0261H116.348C112.841 60.0261 109.685 57.2211 109.685 53.3631V0.411133H89.6968V53.3631C89.6968 56.8701 92.5018 60.0261 96.3598 60.0261H98.1128H103.022C106.529 60.0261 109.685 62.8311 109.685 66.6891V73.3521C109.686 76.8581 112.491 80.0141 116.348 80.0141Z" fill="black"/>
<path fill-rule="evenodd" clip-rule="evenodd" d="M155.975 80.0141H169.3V60.0261H155.974C152.467 60.0261 149.311 57.2211 149.311 53.3631V0.411133H129.323V53.3631C129.323 56.8701 132.128 60.0261 135.986 60.0261H137.739H142.648C146.155 60.0261 149.311 62.8311 149.311 66.6891V73.3521C149.312 76.8581 152.468 80.0141 155.975 80.0141Z" fill="black"/>
<path fill-rule="evenodd" clip-rule="evenodd" d="M368.133 27.0619V80.0139H348.145V20.3989H361.471C364.977 20.3989 368.133 23.2049 368.133 27.0619Z" fill="black"/>
<path fill-rule="evenodd" clip-rule="evenodd" d="M315.181 0.411133H341.832C345.339 0.411133 348.495 3.21614 348.495 7.07414V20.4001H315.532C312.025 20.4001 308.869 23.2051 308.869 27.0631V80.0152H288.881V27.0631C288.881 23.5561 291.686 20.4001 295.544 20.4001H297.297H301.856C305.363 20.4001 308.519 17.5951 308.519 13.7371V7.07414C308.518 3.21614 311.324 0.411133 315.181 0.411133Z" fill="black"/>
<path d="M357.964 46.7002H302.557V60.0262H357.964V46.7002Z" fill="black"/>
<path fill-rule="evenodd" clip-rule="evenodd" d="M225.759 80.0139H278.711V60.0259H225.759C222.252 60.0259 219.096 57.2209 219.096 53.3629V46.6999V20.3989H205.77C202.263 20.3989 199.107 23.2039 199.107 27.0619V47.0499V53.7129C199.107 57.2199 201.912 60.3759 205.77 60.3759H207.523H212.432C215.939 60.3759 219.095 63.1809 219.095 67.0389V73.7019C219.096 76.8579 221.902 80.0139 225.759 80.0139Z" fill="black"/>
<path fill-rule="evenodd" clip-rule="evenodd" d="M278.711 0.411133H225.759C222.252 0.411133 219.096 3.21614 219.096 7.07414V20.4001H278.711V0.411133Z" fill="black"/>
<path fill-rule="evenodd" clip-rule="evenodd" d="M268.542 46.7H212.083V33.374H268.542V46.7Z" fill="black"/>
<path fill-rule="evenodd" clip-rule="evenodd" d="M404.604 80.0139H441.074C444.581 80.0139 447.737 77.2089 447.737 73.3509V60.0249H404.604C401.097 60.0249 397.941 57.2199 397.941 53.3619V46.6999V20.3989H384.615C381.108 20.3989 377.952 23.2039 377.952 27.0619V47.0499V53.7129C377.952 57.2199 380.757 60.3759 384.615 60.3759H386.368H391.277C394.784 60.3759 397.94 63.1809 397.94 67.0389V73.7019C397.941 76.8579 400.746 80.0139 404.604 80.0139Z" fill="black"/>
<path fill-rule="evenodd" clip-rule="evenodd" d="M457.555 0.411133H404.603C401.096 0.411133 397.94 3.21614 397.94 7.07414V20.4001H457.555V0.411133Z" fill="black"/>
<path fill-rule="evenodd" clip-rule="evenodd" d="M447.737 46.7H417.93V33.374H461.063C464.57 33.374 467.726 36.53 467.726 40.037V46.7V60.026H447.738C447.737 60.026 447.737 46.7 447.737 46.7Z" fill="black"/>
</svg>
