<svg xmlns:xlink="http://www.w3.org/1999/xlink" xmlns="http://www.w3.org/2000/svg" width="108" height="22" viewBox="0 0 108 22" fill="none">
<path d="M12.0278 17.0997V14.657H0V17.0997H12.0278Z" fill="var(--card-color-icon,currentColor)"/>
<path d="M12.0278 9.77085V7.32812H0V9.77085H12.0278Z" fill="var(--card-color-icon,currentColor)"/>
<path d="M36.0261 0V2.44273H26.7739V7.32831H36.0261V9.77104H26.7739V14.6566H36.0261V17.0994L23.9983 17.0994V0H36.0261Z" fill="var(--card-color-icon,currentColor)"/>
<path d="M90.6223 14.656V0H84.0376V2.44353H87.8444V14.656H84.0376V17.0995H94.4034V14.656H90.6223Z" fill="var(--card-color-icon,currentColor)"/>
<path d="M107.395 13.1381C107.395 15.6588 105.029 17.2535 101.865 17.2535C98.3928 17.2535 96.0007 15.6074 95.8978 12.7523H98.6243C98.7272 14.1155 99.9104 15.0929 101.891 15.0929C103.563 15.0929 104.669 14.4242 104.669 13.3696C104.669 12.003 103.565 11.8605 101.704 11.6206C101.639 11.6121 101.572 11.6036 101.505 11.5948C98.5214 11.2347 96.1808 10.5917 96.1808 7.86524C96.1808 5.37027 98.3928 3.77554 101.505 3.77554C104.72 3.77554 106.984 5.26738 107.164 7.96812H104.437C104.283 6.75922 103.177 5.91041 101.557 5.91041C99.9618 5.91041 98.8815 6.57917 98.8815 7.63374C98.8815 8.86837 100.142 9.0227 102.02 9.22847C104.952 9.58857 107.395 10.2059 107.395 13.1381Z" fill="var(--card-color-icon,currentColor)"/>
<path fill-rule="evenodd" clip-rule="evenodd" d="M81.4816 14.6814C80.8901 14.6814 80.6586 14.5013 80.6586 13.8326V8.55971C80.6586 5.44743 78.6523 3.77554 75.1799 3.77554C71.8619 3.77554 69.7013 5.39599 69.3926 7.9424H72.1448C72.3506 6.78494 73.4309 6.0133 75.0513 6.0133C76.8518 6.0133 77.9064 6.91355 77.9064 8.37966V9.17703H74.6398C70.9873 9.17703 69.0582 10.6689 69.0582 13.3953C69.0582 15.8389 71.0388 17.2535 73.8938 17.2535C75.9516 17.2535 77.3148 16.379 78.1893 15.0929C78.215 16.3533 78.8581 17.0992 80.5814 17.0992H82.0218V14.6814H81.4816ZM77.9064 11.7492C77.9064 13.7297 76.5431 15.0929 74.2797 15.0929C72.7878 15.0929 71.8619 14.3213 71.8619 13.2153C71.8619 11.8778 72.8135 11.2347 74.5112 11.2347H77.9064V11.7492Z" fill="var(--card-color-icon,currentColor)"/>
<path d="M60.3694 14.7845C62.4014 14.7845 63.6618 13.2927 63.6618 10.6949V3.93013H66.4397V17.0995H63.9961L63.6875 15.4533C62.8901 16.4307 61.6555 17.2538 59.7264 17.2538C57.0257 17.2538 54.6336 15.8134 54.6336 11.4408V3.93013H57.4372V11.1578C57.4372 13.4985 58.4146 14.7845 60.3694 14.7845Z" fill="var(--card-color-icon,currentColor)"/>
<path fill-rule="evenodd" clip-rule="evenodd" d="M49.0875 5.75609C48.2645 4.59862 46.8498 3.77554 44.8692 3.77554C41.2682 3.77554 38.6447 6.47628 38.6447 10.5145C38.6447 14.7586 41.2425 17.2535 44.7921 17.2535C46.8241 17.2535 48.1873 16.3276 49.0361 15.1701V22H51.814V3.92987H49.3962L49.0875 5.75609ZM45.2808 14.9129C42.9916 14.9129 41.474 13.0867 41.474 10.5145C41.474 7.9424 42.9916 6.14191 45.2808 6.14191C47.57 6.14191 49.0618 7.9424 49.0618 10.5403C49.0618 13.0867 47.57 14.9129 45.2808 14.9129Z" fill="var(--card-color-icon,currentColor)"/>
</svg>