<svg xmlns="http://www.w3.org/2000/svg" width="468" height="81" fill="none">
  <path fill="var(--card-color-icon,currentColor)" fill-rule="evenodd" d="M56.7338.4111h23.145v19.988h-23.145c-3.507 0-6.663 2.805-6.663 6.663v52.952h-19.989v-52.952c0-3.507 2.805-6.663 6.663-6.663h6.662c3.507 0 6.663-2.805 6.663-6.663v-6.663c.001-3.857 2.806-6.662 6.664-6.662ZM30.0819 20.3991H.2749V.4111h29.807v19.988ZM189.289 53.3631V.4111H169.3v59.615h13.326c3.507 0 6.663-2.806 6.663-6.663ZM116.348 80.0141h13.326v-19.988h-13.326c-3.507 0-6.663-2.805-6.663-6.663V.4111H89.6968v52.952c0 3.507 2.805 6.663 6.663 6.663h6.6622c3.507 0 6.663 2.805 6.663 6.663v6.663c.001 3.506 2.806 6.662 6.663 6.662ZM155.975 80.0141H169.3v-19.988h-13.326c-3.507 0-6.663-2.805-6.663-6.663V.4111h-19.988v52.952c0 3.507 2.805 6.663 6.663 6.663h6.662c3.507 0 6.663 2.805 6.663 6.663v6.663c.001 3.506 3.157 6.662 6.664 6.662ZM368.133 27.0619v52.952h-19.988v-59.615h13.326c3.506 0 6.662 2.806 6.662 6.663Z" clip-rule="evenodd"/>
  <path fill="var(--card-color-icon,currentColor)" fill-rule="evenodd" d="M315.181.4111h26.651c3.507 0 6.663 2.805 6.663 6.663v13.326h-32.963c-3.507 0-6.663 2.805-6.663 6.663v52.9521h-19.988V27.0631c0-3.507 2.805-6.663 6.663-6.663h6.312c3.507 0 6.663-2.805 6.663-6.663v-6.663c-.001-3.858 2.805-6.663 6.662-6.663Z" clip-rule="evenodd"/>
  <path fill="var(--card-color-icon,currentColor)" d="M357.964 46.7002h-55.407v13.326h55.407v-13.326Z"/>
  <path fill="var(--card-color-icon,currentColor)" fill-rule="evenodd" d="M225.759 80.0139h52.952v-19.988h-52.952c-3.507 0-6.663-2.805-6.663-6.663v-32.964H205.77c-3.507 0-6.663 2.805-6.663 6.663v26.651c0 3.507 2.805 6.663 6.663 6.663h6.662c3.507 0 6.663 2.805 6.663 6.663v6.663c.001 3.156 2.807 6.312 6.664 6.312Z" clip-rule="evenodd"/>
  <path fill="var(--card-color-icon,currentColor)" fill-rule="evenodd" d="M278.711.4111h-52.952c-3.507 0-6.663 2.805-6.663 6.663v13.326h59.615V.4111ZM268.542 46.7h-56.459V33.374h56.459V46.7ZM404.604 80.0139h36.47c3.507 0 6.663-2.805 6.663-6.663v-13.326h-43.133c-3.507 0-6.663-2.805-6.663-6.663v-32.963h-13.326c-3.507 0-6.663 2.805-6.663 6.663v26.651c0 3.507 2.805 6.663 6.663 6.663h6.662c3.507 0 6.663 2.805 6.663 6.663v6.663c.001 3.156 2.806 6.312 6.664 6.312Z" clip-rule="evenodd"/>
  <path fill="var(--card-color-icon,currentColor)" fill-rule="evenodd" d="M457.555.4111h-52.952c-3.507 0-6.663 2.805-6.663 6.663v13.326h59.615V.4111ZM447.737 46.7H417.93V33.374h43.133c3.507 0 6.663 3.156 6.663 6.663v19.989h-19.988c-.001 0-.001-13.326-.001-13.326Z" clip-rule="evenodd"/>
</svg>