<svg width="163" height="60" viewBox="0 0 163 60" fill="none" xmlns="http://www.w3.org/2000/svg">
<path d="M54.084 38.3333V20.4533H60.924C62.156 20.4533 63.244 20.6693 64.188 21.1013C65.148 21.5333 65.9 22.1733 66.444 23.0213C66.988 23.8693 67.26 24.9173 67.26 26.1653C67.26 27.3813 66.98 28.4213 66.42 29.2853C65.86 30.1333 65.108 30.7733 64.164 31.2053L68.244 38.3333H64.068L59.652 30.4373L62.052 31.8533H57.804V38.3333H54.084ZM57.804 28.6133H60.948C61.476 28.6133 61.932 28.5093 62.316 28.3013C62.7 28.0933 62.996 27.8053 63.204 27.4373C63.428 27.0693 63.54 26.6453 63.54 26.1653C63.54 25.6693 63.428 25.2373 63.204 24.8693C62.996 24.5013 62.7 24.2133 62.316 24.0053C61.932 23.7973 61.476 23.6933 60.948 23.6933H57.804V28.6133Z" fill="black"/>
<path d="M79.0438 38.6213C77.6998 38.6213 76.4518 38.3893 75.2998 37.9253C74.1478 37.4613 73.1398 36.8133 72.2758 35.9813C71.4278 35.1333 70.7638 34.1493 70.2838 33.0293C69.8038 31.9093 69.5638 30.6933 69.5638 29.3813C69.5638 28.0693 69.7958 26.8533 70.2598 25.7333C70.7398 24.6133 71.4038 23.6373 72.2518 22.8053C73.1158 21.9733 74.1238 21.3253 75.2758 20.8613C76.4278 20.3973 77.6838 20.1653 79.0438 20.1653C80.4038 20.1653 81.6598 20.3973 82.8118 20.8613C83.9638 21.3253 84.9638 21.9733 85.8118 22.8053C86.6758 23.6373 87.3398 24.6133 87.8038 25.7333C88.2838 26.8533 88.5238 28.0693 88.5238 29.3813C88.5238 30.6933 88.2838 31.9093 87.8038 33.0293C87.3238 34.1493 86.6518 35.1333 85.7878 35.9813C84.9398 36.8133 83.9398 37.4613 82.7878 37.9253C81.6358 38.3893 80.3878 38.6213 79.0438 38.6213ZM79.0438 35.2613C79.8598 35.2613 80.6118 35.1173 81.2998 34.8293C82.0038 34.5413 82.6198 34.1413 83.1478 33.6293C83.6758 33.1013 84.0838 32.4773 84.3718 31.7573C84.6598 31.0373 84.8038 30.2453 84.8038 29.3813C84.8038 28.5173 84.6598 27.7333 84.3718 27.0293C84.0838 26.3093 83.6758 25.6853 83.1478 25.1573C82.6198 24.6293 82.0038 24.2293 81.2998 23.9573C80.6118 23.6693 79.8598 23.5253 79.0438 23.5253C78.2278 23.5253 77.4678 23.6693 76.7638 23.9573C76.0758 24.2293 75.4678 24.6293 74.9398 25.1573C74.4118 25.6853 74.0038 26.3093 73.7158 27.0293C73.4278 27.7333 73.2838 28.5173 73.2838 29.3813C73.2838 30.2453 73.4278 31.0373 73.7158 31.7573C74.0038 32.4773 74.4118 33.1013 74.9398 33.6293C75.4678 34.1413 76.0758 34.5413 76.7638 34.8293C77.4678 35.1173 78.2278 35.2613 79.0438 35.2613Z" fill="black"/>
<path d="M91.1621 38.3333V20.4533H94.7621L101.458 29.3333H99.7781L106.282 20.4533H109.882V38.3333H106.162V24.5573L107.65 24.8933L100.762 33.7733H100.282L93.6341 24.8933L94.8821 24.5573V38.3333H91.1621Z" fill="black"/>
<path d="M114.565 38.3333V34.7333H118.165V38.3333H114.565Z" fill="black"/>
<path d="M121.53 38.3333L127.578 20.4533H132.522L138.57 38.3333H134.514L133.314 34.6853H126.762L125.562 38.3333H121.53ZM127.794 31.4453H132.282L129.546 22.9973H130.554L127.794 31.4453Z" fill="black"/>
<path d="M140.428 38.3333V20.4533H144.148V38.3333H140.428Z" fill="black"/>
<path d="M27.6667 48.1625L14.8333 40.7833C14.2528 40.4472 13.8021 40.0042 13.4813 39.4542C13.1604 38.9042 13 38.2931 13 37.6208V23.0458C13 22.3736 13.1604 21.7625 13.4813 21.2125C13.8021 20.6625 14.2528 20.2194 14.8333 19.8833L27.6667 12.5042C28.2472 12.1681 28.8583 12 29.5 12C30.1417 12 30.7528 12.1681 31.3333 12.5042L44.1667 19.8833C44.7472 20.2194 45.1979 20.6625 45.5188 21.2125C45.8396 21.7625 46 22.3736 46 23.0458V37.6208C46 38.2931 45.8396 38.9042 45.5188 39.4542C45.1979 40.0042 44.7472 40.4472 44.1667 40.7833L31.3333 48.1625C30.7528 48.4986 30.1417 48.6667 29.5 48.6667C28.8583 48.6667 28.2472 48.4986 27.6667 48.1625ZM27.6667 31.3875V43.9458L29.5 45L31.3333 43.9458V31.3875L42.3333 25.0167V23.0917L40.3625 21.9458L29.5 28.225L18.6375 21.9458L16.6667 23.0917V25.0167L27.6667 31.3875Z" fill="#F1CB6A"/>
</svg>
