<svg width="1792" height="589" viewBox="0 0 1792 589" fill="none" xmlns="http://www.w3.org/2000/svg">
<g clip-path="url(#clip0_320_4484)">
<path fill-rule="evenodd" clip-rule="evenodd" d="M1020.31 -2.98394C1051.1 -2.98394 1080.91 7.84762 1104.52 27.6143L1275.65 170.879C1321.63 209.372 1379.69 230.465 1439.65 230.465L1570.57 230.465C1588.48 230.465 1602.99 244.981 1602.99 262.888C1602.99 349.438 1673.16 419.601 1759.71 419.601L2033.23 419.601L2033.23 295.311L1759.71 295.311C1741.8 295.311 1727.28 280.795 1727.28 262.888C1727.28 176.338 1657.12 106.175 1570.57 106.175L1439.65 106.175C1408.86 106.175 1379.05 95.3439 1355.44 75.5772L1184.31 -67.6875C1138.33 -106.18 1080.27 -127.274 1020.31 -127.274L334.61 -127.274L334.61 -2.984L1020.31 -2.98394Z" fill="#282828"/>
<path fill-rule="evenodd" clip-rule="evenodd" d="M91.9335 284.098C106.27 284.098 120.15 289.141 131.142 298.344L341.338 474.314C374.7 502.243 416.822 517.547 460.331 517.547L588.067 517.547C621.801 517.547 649.148 544.894 649.148 578.628L649.146 1073.84L773.435 1073.84L773.437 578.628C773.437 476.251 690.444 393.257 588.067 393.257L460.331 393.257C445.995 393.257 432.115 388.215 421.122 379.012L210.926 203.042C177.565 175.113 135.442 159.809 91.9335 159.809L-619.236 159.808L-619.236 284.098L91.9335 284.098Z" fill="#282828"/>
<path fill-rule="evenodd" clip-rule="evenodd" d="M664.855 -127.272L99.8412 -127.272L99.8412 -2.98268L540.565 -2.98264L540.565 92.3607C540.565 218.207 642.583 320.225 768.429 320.225L872.131 320.225C888.421 354.08 917.596 380.564 953.296 393.319L953.296 656.812L1077.59 656.812L1077.59 379.946C1118.22 354.577 1145.25 309.46 1145.25 258.03C1145.25 178.709 1080.95 114.407 1001.63 114.406C944.547 114.406 895.244 147.704 872.083 195.935L768.429 195.935C711.227 195.935 664.855 149.564 664.855 92.3608L664.855 -127.272ZM1001.68 221.956C981.626 221.956 965.367 238.216 965.367 258.274C965.367 278.331 981.626 294.591 1001.68 294.591C1021.74 294.591 1038 278.331 1038 258.274C1038 238.216 1021.74 221.956 1001.68 221.956Z" fill="#282828"/>
</g>
<defs>
<clipPath id="clip0_320_4484">
<rect width="1792" height="589" fill="white" transform="translate(1792 589) rotate(-180)"/>
</clipPath>
</defs>
</svg>
