<svg width="46" height="46" viewBox="0 0 46 46" fill="none" xmlns="http://www.w3.org/2000/svg">
<mask id="mask0_4_77" style="mask-type:alpha" maskUnits="userSpaceOnUse" x="0" y="0" width="46" height="46">
<rect width="46" height="46" fill="#D9D9D9"/>
</mask>
<g mask="url(#mask0_4_77)">
<path d="M11.2125 32.775C12.8417 31.5292 14.6625 30.5469 16.675 29.8281C18.6875 29.1094 20.7958 28.75 23 28.75C25.2042 28.75 27.3125 29.1094 29.325 29.8281C31.3375 30.5469 33.1583 31.5292 34.7875 32.775C35.9056 31.4653 36.7761 29.9799 37.399 28.3188C38.0219 26.6576 38.3333 24.8847 38.3333 23C38.3333 18.7514 36.8399 15.1337 33.8531 12.1469C30.8663 9.16008 27.2486 7.66668 23 7.66668C18.7514 7.66668 15.1337 9.16008 12.1469 12.1469C9.16008 15.1337 7.66668 18.7514 7.66668 23C7.66668 24.8847 7.97814 26.6576 8.60105 28.3188C9.22397 29.9799 10.0945 31.4653 11.2125 32.775ZM23 24.9167C21.1153 24.9167 19.5261 24.2698 18.2323 22.9761C16.9386 21.6823 16.2917 20.0931 16.2917 18.2083C16.2917 16.3236 16.9386 14.7344 18.2323 13.4406C19.5261 12.1469 21.1153 11.5 23 11.5C24.8847 11.5 26.474 12.1469 27.7677 13.4406C29.0615 14.7344 29.7083 16.3236 29.7083 18.2083C29.7083 20.0931 29.0615 21.6823 27.7677 22.9761C26.474 24.2698 24.8847 24.9167 23 24.9167ZM23 42.1667C20.3486 42.1667 17.857 41.6636 15.525 40.6573C13.1931 39.6511 11.1646 38.2854 9.43959 36.5604C7.71459 34.8354 6.34897 32.807 5.34272 30.475C4.33647 28.1431 3.83334 25.6514 3.83334 23C3.83334 20.3486 4.33647 17.857 5.34272 15.525C6.34897 13.1931 7.71459 11.1646 9.43959 9.43959C11.1646 7.71459 13.1931 6.34897 15.525 5.34272C17.857 4.33647 20.3486 3.83334 23 3.83334C25.6514 3.83334 28.1431 4.33647 30.475 5.34272C32.807 6.34897 34.8354 7.71459 36.5604 9.43959C38.2854 11.1646 39.6511 13.1931 40.6573 15.525C41.6636 17.857 42.1667 20.3486 42.1667 23C42.1667 25.6514 41.6636 28.1431 40.6573 30.475C39.6511 32.807 38.2854 34.8354 36.5604 36.5604C34.8354 38.2854 32.807 39.6511 30.475 40.6573C28.1431 41.6636 25.6514 42.1667 23 42.1667ZM23 38.3333C24.6931 38.3333 26.2903 38.0858 27.7917 37.5906C29.2931 37.0955 30.6667 36.3847 31.9125 35.4583C30.6667 34.532 29.2931 33.8212 27.7917 33.3261C26.2903 32.8309 24.6931 32.5833 23 32.5833C21.307 32.5833 19.7097 32.8309 18.2083 33.3261C16.707 33.8212 15.3333 34.532 14.0875 35.4583C15.3333 36.3847 16.707 37.0955 18.2083 37.5906C19.7097 38.0858 21.307 38.3333 23 38.3333ZM23 21.0833C23.8306 21.0833 24.5174 20.8118 25.0604 20.2688C25.6035 19.7257 25.875 19.0389 25.875 18.2083C25.875 17.3778 25.6035 16.691 25.0604 16.1479C24.5174 15.6049 23.8306 15.3333 23 15.3333C22.1695 15.3333 21.4826 15.6049 20.9396 16.1479C20.3965 16.691 20.125 17.3778 20.125 18.2083C20.125 19.0389 20.3965 19.7257 20.9396 20.2688C21.4826 20.8118 22.1695 21.0833 23 21.0833Z" fill="white"/>
</g>
</svg>
