<svg width="596" height="22" viewBox="0 0 596 22" fill="none" xmlns="http://www.w3.org/2000/svg">
<path d="M0.333333 11C0.333333 16.891 5.10896 21.6667 11 21.6667C16.891 21.6667 21.6667 16.891 21.6667 11C21.6667 5.10896 16.891 0.333333 11 0.333333C5.10896 0.333333 0.333333 5.10896 0.333333 11ZM574.333 11C574.333 16.891 579.109 21.6667 585 21.6667C590.891 21.6667 595.667 16.891 595.667 11C595.667 5.10896 590.891 0.333333 585 0.333333C579.109 0.333333 574.333 5.10896 574.333 11ZM11 13H585V9H11V13Z" fill="#F1CB6A"/>
</svg>
